<?xml version="1.0" encoding="utf-8"?>
<!-- Generator: Adobe Illustrator 20.1.0, SVG Export Plug-In . SVG Version: 6.00 Build 0)  -->
<svg version="1.1" id="Layer_1" xmlns="http://www.w3.org/2000/svg" xmlns:xlink="http://www.w3.org/1999/xlink" x="0px" y="0px"
	 viewBox="0 0 351.7 475.8" style="enable-background:new 0 0 351.7 475.8;" xml:space="preserve">
<style type="text/css">
	.st0{fill:#3ABB9B;stroke:#FFFFFF;stroke-width:2;stroke-miterlimit:10;}
	.st1{fill:#FFFFFF;}
	.st2{fill:#3ABB9B;}
	.st3{opacity:0.3;fill:url(#SVGID_1_);}
	.st4{opacity:0.3;fill:url(#SVGID_2_);}
	.st5{fill:none;}
	.st6{opacity:0.3;fill:url(#SVGID_3_);}
	.st7{fill:url(#SVGID_4_);stroke:#FFFFFF;stroke-width:2;stroke-miterlimit:10;}
	.st8{fill:#3ABB9B;stroke:#FFFFFF;stroke-width:6;stroke-miterlimit:10;}
	.st9{opacity:0.3;fill:url(#SVGID_5_);}
	.st10{fill:#797979;stroke:#FFFFFF;stroke-width:6;stroke-miterlimit:10;}
	.st11{fill:#797979;}
	.st12{fill:#787878;}
	.st13{opacity:0.3;fill:url(#SVGID_6_);}
</style>
<g>
</g>
<g>
	<path class="st10" d="M176,358c-23.7,0-46.3-4.5-67.1-12.7C144.2,382,176,407,176,407s31.7-25,67.1-61.7
		C222.3,353.5,199.6,358,176,358z"/>
	<path class="st11" d="M307.7,83.8c-28.7-42-77-69.5-131.7-69.5c-88.1,0-159.6,71.4-159.6,159.6c0,40.7,15.2,77.8,40.3,105.9
		c29.2,32.9,71.8,53.6,119.3,53.6c88.1,0,159.6-71.4,159.6-159.6C335.5,140.4,325.2,109.4,307.7,83.8z"/>
	<g>
		<path class="st5" d="M176,27C95,27,29.1,92.9,29.1,173.9c0,37.7,14.3,72.1,37.7,98.1c0,0,0,0,0,0L297.7,91.7c0,0,0,0,0-0.1
			C271.2,52.7,226.5,27,176,27z"/>
		<path class="st5" d="M176,320.8c81,0,146.9-65.9,146.9-146.9c0-30.4-9.3-58.7-25.2-82.2L66.8,272
			C93.7,301.9,132.6,320.8,176,320.8z"/>
		<path class="st1" d="M307.7,83.9c-28.7-42-77-69.6-131.8-69.6c-88.1,0-159.6,71.4-159.6,159.6c0,40.7,15.2,77.8,40.3,106
			c29.2,32.9,71.8,53.6,119.3,53.6c88.1,0,159.6-71.4,159.6-159.6C335.5,140.5,325.3,109.5,307.7,83.9z M176,320.8
			c-43.3,0-82.3-18.9-109.2-48.8c0,0,0,0,0,0c-23.4-26-37.7-60.4-37.7-98.1C29.1,92.9,95,27,176,27c50.6,0,95.2,25.7,121.7,64.7
			c0,0,0,0,0,0.1c15.9,23.5,25.2,51.7,25.2,82.2C322.9,254.9,257,320.8,176,320.8z"/>
	</g>
	<g>
		<circle class="st12" cx="176" cy="173.9" r="129.4"/>
		<path class="st1" d="M249.1,168.1c-3.2-3.2-7.3-4.9-12.1-5c-0.7-0.1-1.3-0.1-2-0.1c-0.1,0-0.2,0-0.2,0l-9.8,0h-29.2l3-9.4
			c0-1.9-1.2-3.6-2.9-4.3c-0.6-0.2-1.2-0.3-1.8-0.3c-1.2,0-2.5,0.5-3.4,1.3l-28.1,27c-0.9,0.9-1.4,2-1.4,3.3c0,1.2,0.5,2.4,1.4,3.3
			l28.1,27c1.4,1.3,3.4,1.7,5.2,1c1.8-0.7,2.9-2.4,2.9-4.3l-3-9.4h21.3c0.7,0.1,1.4,0.1,2.1,0.1c0.2,5.1-0.8,9-2.9,11.6
			c-4.6,4.2-9.7,7.5-15.5,9.9c-5.7,2.4-11.9,3.6-18.6,3.6c-6.9,0-13.3-1.3-19.3-3.8c-6-2.6-11.2-6.1-15.7-10.6
			c-4.5-4.5-8-9.7-10.6-15.7c-2.6-6-3.8-12.4-3.8-19.3c0-6.9,1.3-13.2,3.8-19.1c2.6-5.9,6.1-11.1,10.6-15.6c4.5-4.5,9.7-8,15.7-10.6
			c6-2.6,12.4-3.8,19.3-3.8c7.9,0,15.3,1.8,22.1,5.3c6.8,3.5,12.5,8.2,17,14c2.5,2.6,6,4,10.6,4c4.9,0,9.2-1.8,12.9-5.4
			c3.7-3.6,5.5-7.9,5.5-12.8c0-3.5-1-6.4-2.9-8.7c-7.8-9.5-17.3-17.1-28.5-22.8c-11.3-5.7-23.5-8.6-36.7-8.6
			c-11.6,0-22.6,2.2-32.9,6.6c-10.3,4.4-19.2,10.4-26.8,18.1c-7.6,7.7-13.6,16.6-18,26.8c-4.4,10.2-6.6,21.1-6.6,32.7
			c0,11.6,2.2,22.5,6.6,32.8c4.4,10.2,10.4,19.1,18,26.8c7.6,7.7,16.5,13.7,26.8,18.1c10.3,4.4,21.3,6.6,32.9,6.6
			c12,0,23.2-2.3,33.7-6.9c10.5-4.6,19.6-11,27.3-19.3c2.6-2.6,5.1-6.4,7.5-11.4c2.4-4.9,3.6-12.4,3.6-22.5v-18
			C254.1,175.5,252.5,171.4,249.1,168.1z"/>
	</g>
	
		<radialGradient id="SVGID_1_" cx="175.9603" cy="455.0182" r="62.991" gradientTransform="matrix(1 0 0 8.424900e-02 0 416.6834)" gradientUnits="userSpaceOnUse">
		<stop  offset="0.181" style="stop-color:#000000"/>
		<stop  offset="1" style="stop-color:#000000;stop-opacity:0"/>
	</radialGradient>
	<ellipse class="st3" cx="176" cy="455" rx="67.3" ry="6.5"/>
</g>
</svg>
