<?xml version="1.0" encoding="utf-8"?>
<!-- Generator: Adobe Illustrator 17.0.0, SVG Export Plug-In . SVG Version: 6.00 Build 0)  -->
<!DOCTYPE svg PUBLIC "-//W3C//DTD SVG 1.1//EN" "http://www.w3.org/Graphics/SVG/1.1/DTD/svg11.dtd">
<svg version="1.1" id="Layer_1" xmlns="http://www.w3.org/2000/svg" xmlns:xlink="http://www.w3.org/1999/xlink" x="0px" y="0px"
	 width="320px" height="80px" viewBox="0 0 320 80" enable-background="new 0 0 320 80" xml:space="preserve">
<g>
	<g>
		<path fill="#FFFFFF" d="M143.448,39.883c0-5.134,0.972-9.956,2.917-14.469c1.943-4.511,4.589-8.459,7.934-11.843
			c3.344-3.384,7.293-6.047,11.844-7.993c4.55-1.943,9.393-2.917,14.527-2.917c5.834,0,11.24,1.265,16.219,3.792
			c4.977,2.529,9.178,5.893,12.602,10.093c0.933,1.4,1.36,2.724,1.283,3.967c0,2.1-0.817,3.929-2.45,5.484
			c-1.633,1.557-3.541,2.374-5.717,2.45c-2.179-0.076-3.734-0.66-4.667-1.75c-2.024-2.567-4.532-4.627-7.526-6.184
			c-2.996-1.555-6.243-2.334-9.743-2.334c-2.957,0-5.757,0.565-8.401,1.692c-2.645,1.129-4.959,2.684-6.943,4.667
			s-3.559,4.279-4.726,6.884c-1.167,2.607-1.75,5.349-1.75,8.226c0,3.033,0.563,5.892,1.692,8.576
			c1.127,2.684,2.684,5.017,4.668,7.001c1.983,1.984,4.297,3.541,6.942,4.667c2.644,1.129,5.484,1.692,8.518,1.692
			c3.501,0,6.748-0.777,9.743-2.334c2.994-1.555,5.502-3.617,7.526-6.184c1.167-1.088,2.76-1.634,4.784-1.634
			c2.255,0,4.161,0.778,5.717,2.334c1.555,1.557,2.334,3.267,2.334,5.134c0,1.79-0.428,3.229-1.283,4.317
			c-3.424,4.201-7.625,7.566-12.602,10.093c-4.979,2.529-10.385,3.792-16.219,3.792c-5.134,0-9.976-0.972-14.527-2.917
			c-4.551-1.943-8.5-4.609-11.844-7.993c-3.345-3.384-5.991-7.331-7.934-11.843C144.419,49.841,143.448,45.017,143.448,39.883z"/>
		<path fill="#FFFFFF" d="M245.125,20.864c3.501,0.39,6.786,1.4,9.86,3.034c3.072,1.633,5.717,3.715,7.934,6.243
			c2.217,2.529,3.967,5.407,5.251,8.635c1.284,3.229,1.925,6.632,1.925,10.209v20.653c0,2.1-0.778,3.89-2.334,5.368
			c-1.557,1.478-3.307,2.217-5.251,2.217c-2.724,0-4.901-1.243-6.534-3.734c-0.39,0.157-0.74,0.332-1.05,0.525
			c-0.312,0.195-0.623,0.37-0.933,0.525c-1.867,0.857-3.774,1.517-5.717,1.983c-2.024,0.467-4.162,0.7-6.418,0.7
			c-5.834,0-11.046-1.575-15.635-4.726c-4.591-3.151-8.013-7.214-10.268-12.194c-0.779-1.788-1.382-3.617-1.809-5.484
			c-0.428-1.867-0.641-3.811-0.641-5.834c0-2.022,0.213-3.967,0.641-5.834c0.427-1.867,1.03-3.693,1.809-5.484
			c2.255-5.056,5.677-9.14,10.268-12.252c4.589-3.11,9.801-4.667,15.635-4.667c0.622,0,1.185,0,1.692,0
			C244.055,20.747,244.58,20.787,245.125,20.864z M241.742,62.053c1.788,0,3.48-0.33,5.076-0.992
			c1.593-0.66,2.976-1.575,4.142-2.742c1.167-1.167,2.1-2.547,2.8-4.143c0.7-1.593,1.05-3.325,1.05-5.192
			c0-1.71-0.35-3.364-1.05-4.959c-0.7-1.594-1.653-2.994-2.859-4.201c-1.207-1.205-2.607-2.158-4.201-2.859
			c-1.595-0.7-3.249-1.05-4.959-1.05c-1.712,0-3.346,0.35-4.901,1.05c-1.557,0.7-2.937,1.654-4.143,2.859
			c-1.207,1.207-2.158,2.607-2.859,4.201c-0.7,1.595-1.05,3.249-1.05,4.959c0,1.79,0.368,3.482,1.108,5.076
			c0.739,1.595,1.71,2.975,2.917,4.142c1.205,1.167,2.585,2.1,4.143,2.8C238.512,61.703,240.108,62.053,241.742,62.053z"/>
		<path fill="#FFFFFF" d="M281.646,77.339c-2.1,0-3.851-0.68-5.251-2.042c-1.4-1.36-2.179-3.169-2.334-5.426V48.285
			c0.076-3.734,0.875-7.253,2.392-10.56c1.517-3.306,3.539-6.184,6.067-8.635c2.527-2.45,5.484-4.394,8.868-5.834
			c3.384-1.438,6.981-2.235,10.793-2.392c2.177,0,3.985,0.74,5.426,2.217c1.438,1.479,2.235,3.267,2.392,5.368
			c0,2.1-0.74,3.871-2.217,5.309c-1.479,1.44-3.307,2.199-5.484,2.275c-1.79,0-3.462,0.332-5.017,0.992
			c-1.557,0.662-2.917,1.575-4.084,2.742c-1.167,1.167-2.1,2.549-2.8,4.143c-0.7,1.595-1.05,3.325-1.05,5.192v21.236
			c-0.157,2.024-0.915,3.696-2.275,5.018C285.71,76.679,283.901,77.339,281.646,77.339z"/>
	</g>
	<g>
		<path fill="#FFFFFF" d="M111.84,20.63c3.81,0,7.427,0.741,10.851,2.217c3.422,1.479,6.417,3.501,8.985,6.067
			c2.567,2.567,4.609,5.562,6.126,8.985c1.517,3.424,2.275,7.118,2.275,11.085c0,3.891-0.74,7.526-2.217,10.91
			c-1.479,3.384-3.482,6.359-6.009,8.927c-2.529,2.567-5.504,4.591-8.927,6.067c-3.424,1.479-7.118,2.217-11.085,2.217
			c-3.891,0-7.546-0.7-10.969-2.1c-3.424-1.4-6.417-3.364-8.985-5.893c-2.567-2.527-4.591-5.502-6.067-8.926
			c-1.479-3.422-2.217-7.156-2.217-11.202c0-3.889,0.718-7.526,2.158-10.91c1.438-3.384,3.422-6.339,5.951-8.868
			c2.527-2.527,5.522-4.551,8.985-6.068C104.157,21.622,107.873,20.787,111.84,20.63z M111.84,35.916
			c-1.79,0-3.462,0.332-5.018,0.992c-1.557,0.662-2.937,1.575-4.142,2.742c-1.207,1.167-2.159,2.549-2.859,4.142
			c-0.7,1.595-1.05,3.325-1.05,5.192c0,1.79,0.35,3.482,1.05,5.076c0.7,1.595,1.652,2.995,2.859,4.201
			c1.205,1.207,2.585,2.158,4.142,2.859c1.555,0.7,3.227,1.05,5.018,1.05c1.788,0,3.48-0.35,5.076-1.05
			c1.593-0.7,2.976-1.652,4.142-2.859c1.167-1.205,2.1-2.605,2.8-4.201c0.7-1.594,1.05-3.286,1.05-5.076
			c-0.157-3.577-1.44-6.611-3.851-9.101C118.646,37.395,115.574,36.073,111.84,35.916z"/>
		<g>
			<path fill="#FFFFFF" d="M38.574,44.258l12.408,11.906c0.6,0.584,1.504,0.76,2.291,0.443c0.787-0.315,1.298-1.061,1.298-1.885
				l-1.319-4.15h12.902l4.35-0.005c0.035,0,0.069,0.005,0.104,0.005c4.413,0,7.991-3.473,7.991-7.756s-3.577-7.756-7.991-7.756
				c-0.035,0-0.07,0.005-0.104,0.005l-4.35-0.005H53.253l1.319-4.15c0-0.828-0.511-1.573-1.298-1.888
				c-0.26-0.104-0.533-0.152-0.804-0.152c-0.547,0-1.086,0.205-1.488,0.596L38.574,41.372c-0.392,0.38-0.618,0.904-0.618,1.443
				C37.956,43.353,38.182,43.88,38.574,44.258z"/>
		</g>
		<path fill="#FFFFFF" d="M76.859,37.316c-1.426-1.424-3.216-2.156-5.363-2.207c-0.291-0.031-0.587-0.05-0.887-0.05
			c-0.035,0-0.07,0.005-0.104,0.005l-4.35-0.005H53.253l1.319-4.15c0-0.828-0.511-1.573-1.298-1.888
			c-0.26-0.104-0.533-0.152-0.804-0.152c-0.547,0-1.086,0.205-1.488,0.596L38.574,41.372c-0.392,0.38-0.618,0.904-0.618,1.443
			c0,0.538,0.227,1.065,0.618,1.443l12.408,11.906c0.6,0.584,1.504,0.76,2.291,0.443c0.787-0.315,1.298-1.061,1.298-1.885
			l-1.319-4.15h9.393c0.297,0.029,0.6,0.047,0.912,0.047c0.076,2.257-0.35,3.967-1.283,5.134c-2.024,1.867-4.299,3.325-6.826,4.376
			c-2.529,1.05-5.271,1.575-8.226,1.575c-3.033,0-5.874-0.563-8.518-1.692c-2.645-1.127-4.959-2.684-6.942-4.667
			c-1.984-1.984-3.541-4.297-4.668-6.943c-1.128-2.644-1.692-5.484-1.692-8.518c0-3.033,0.563-5.852,1.692-8.459
			c1.127-2.605,2.684-4.901,4.668-6.884c1.983-1.984,4.297-3.538,6.942-4.667c2.644-1.127,5.484-1.692,8.518-1.692
			c3.501,0,6.748,0.778,9.743,2.334c2.994,1.557,5.502,3.617,7.526,6.184c1.088,1.167,2.644,1.75,4.667,1.75
			c2.177,0,4.084-0.796,5.717-2.392c1.634-1.593,2.45-3.48,2.45-5.659c0-1.555-0.428-2.839-1.283-3.851
			c-3.424-4.201-7.625-7.564-12.602-10.093c-4.979-2.527-10.385-3.792-16.219-3.792c-5.134,0-9.976,0.974-14.527,2.917
			c-4.551,1.945-8.5,4.609-11.844,7.993c-3.345,3.384-5.991,7.333-7.934,11.843C10.972,29.927,10,34.749,10,39.883
			s0.972,9.958,2.917,14.469c1.943,4.512,4.589,8.459,7.934,11.843c3.344,3.384,7.293,6.049,11.844,7.993
			c4.55,1.945,9.393,2.917,14.527,2.917c5.289,0,10.248-1.01,14.877-3.033c4.627-2.022,8.653-4.861,12.077-8.518
			c1.167-1.167,2.275-2.839,3.325-5.017c1.05-2.177,1.575-5.484,1.575-9.918v-7.935C79.077,40.583,78.336,38.795,76.859,37.316z"/>
	</g>
</g>
</svg>
