<svg id="Layer_1" data-name="Layer 1" xmlns="http://www.w3.org/2000/svg" viewBox="0 0 841.89 595.28"><defs><style>.cls-1,.cls-5{fill:#f0efef;}.cls-1,.cls-2,.cls-3,.cls-4,.cls-5,.cls-6,.cls-7,.cls-8{stroke:#7b7b7b;stroke-miterlimit:10;}.cls-2,.cls-4,.cls-8{fill:#d8d8d8;}.cls-2,.cls-5{stroke-width:2px;}.cls-3{fill:#ababab;}.cls-3,.cls-4,.cls-6{stroke-width:3px;}.cls-6,.cls-7{fill:none;}</style></defs><title>Car Type_UI Design</title><path class="cls-1" d="M345.88,149.17v4.12l3.66,0.4-6.47,2.46-4.69.34S342.85,147.92,345.88,149.17Z"/><path class="cls-2" d="M135.32,222.78s2.75-7.78,14.19-10.07,106.67-9.61,106.67-9.61,6.41-.92,15.57-7.33,52.65-33.88,52.65-33.88a176.8,176.8,0,0,1,55.4-10.53c31.59-.92,86.07,0,86.07,0s15.57-1.83,17.86,6.87,5.49,46.24,5.49,46.24L701.64,199s5-2.75,6.41,10.07,1.37,47.61,0,49.9,2.29,4.58,4.58,4.58,6.41,0.92,6,5-0.46,19.69-11.9,19.23h-16s-7.33,1.36-6.87,4.57,3.2,13.73-7.33,13.73H648.07a18.47,18.47,0,0,1,.46-15.57s0.46-33-10.07-44.41c0,0-9.16-8.7-30.22-8.24s-43.49-3.2-51.73,14.19c0,0-8.7,22.89-6.41,43.49,0,0,6.87,13.28-4.58,13.28H534.08l-251.34,3.2S271.29,313,269,296s-8.24-42.12-11.45-45.78-26.1-8.7-48.07-5.49-30.67,6.41-35.25,27-4.12,48.07-4.12,48.07H149.05s-7.33-.46-9.16-7.78l-8.7-1.37s-2.29-.92-2.29-6V290.54s-6.41-20.14,0-28.84S135.32,222.78,135.32,222.78Z"/><circle class="cls-3" cx="220.39" cy="305.24" r="40.01"/><circle class="cls-4" cx="220.39" cy="305.24" r="30.07"/><circle class="cls-3" cx="598.45" cy="305.24" r="40.01"/><circle class="cls-4" cx="598.45" cy="305.24" r="30.07"/><path class="cls-5" d="M396.71,209l-1.27-37.41s0.31-12.09-11.6-12.06c-14.65,0-48.22-1.9-83.93,45.38,0,0-.21,6.23,16.79,6.35C336.8,211.39,396.71,209,396.71,209Z"/><path class="cls-5" d="M417.28,211.08l45.66-1.56s10.75-3.51,7.17-16.93-5.82-21.08-5.82-21.08-3.16-11.93-15.9-11.82-25.75,0-25.75,0-8.62-.28-7.39,13.42C416.61,188.4,417.28,211.08,417.28,211.08Z"/><path class="cls-6" d="M489.67,211.08s4.12,61.15,0,85.41"/><line class="cls-5" x1="272.66" y1="300.61" x2="550.1" y2="295.58"/><line class="cls-5" x1="275.87" y1="305.24" x2="550.1" y2="302.44"/><path class="cls-5" d="M258,203.78s10.76,5.72,19.46,0,37.77-32.51,54.71-41.2l-4.32-1.95S306.53,173.23,258,203.78Z"/><path class="cls-5" d="M135.19,228.47l24.17-1.11s3.2,2.06,2.29,5.49-5.49,20.37-5.49,20.37H138.52s-6.72,2-6.51,1.16S136.43,239.43,135.19,228.47Z"/><path class="cls-5" d="M128,274.06s0.92,2.21,13,1.11a241.11,241.11,0,0,1,27.47-.4"/><path class="cls-6" d="M283.19,205.16s-13.73,49.9,2.06,90.42"/><path class="cls-7" d="M536.82,256.8s4.81-36.85,27-39.37,74.63,0,74.63,0,29.07,2.52,30.44,45.55"/><path class="cls-4" d="M706,210s-14.42-2.52-16,5,0,36.63,0,36.63H706.9S710.34,219.35,706,210Z"/><path class="cls-4" d="M706.68,261.47s-13.51-1.6-15.57,1.6-1.86,23.58-1.86,23.58h18.94s6.32-.5,7.79-4.86,1.46-14.14,1.46-14.14-3.66-3.2-7.33-3.43S706.68,261.47,706.68,261.47Z"/><path class="cls-7" d="M401.35,254.92v12.47l-109.11,1.41s-5.65-1.22-5.65-6.94v-5.33Z"/><path class="cls-7" d="M414.47,254.92v11.75l47.92-.76s6.71-.46,7.92-4a39,39,0,0,0,1.7-7.55Z"/><path class="cls-8" d="M310.12,189.71l5.38,22.55s-19.72,1.48-20.72-2.41C293.44,204.6,292.84,204.82,310.12,189.71Z"/><path class="cls-5" d="M300.39,199.33s1.6-9.84,5.26-10.42a40.12,40.12,0,0,1,5.49-.57s3.78,0,3.78,3.66v11.9a7.6,7.6,0,0,1-6.52,4.35l-0.23,2.4s-8.93.46-9.84-4.35,0-5.72,0-5.72Z"/><ellipse class="cls-8" cx="381.7" cy="227.16" rx="9.99" ry="5.58"/><rect class="cls-1" x="367.81" y="225.34" width="27.79" height="3.65" rx="1.35" ry="1.35"/><ellipse class="cls-8" cx="460.93" cy="227.16" rx="9.99" ry="5.58"/><rect class="cls-1" x="447.04" y="225.34" width="27.79" height="3.65" rx="1.35" ry="1.35"/><path class="cls-7" d="M173.65,251.78s3.4-26.08,19.12-27.87,52.82,0,52.82,0,20.57,1.78,21.55,32.24"/><ellipse class="cls-7" cx="140.82" cy="296.49" rx="5.49" ry="10.28" transform="translate(-129.38 110.13) rotate(-30)"/><path class="cls-6" d="M401.35,152.77s4.54,53.57,4.08,57.9a25.72,25.72,0,0,0,0,6.87s1.86,72.08,0,78"/><line class="cls-5" x1="286.59" y1="240.97" x2="401.35" y2="238.4"/><line class="cls-5" x1="411.38" y1="239.69" x2="474.83" y2="238.4"/><path class="cls-7" d="M474.83,160.63s14.84,71.77,6.6,129.45"/><line class="cls-7" x1="689.42" y1="223.24" x2="706.9" y2="223.24"/><line class="cls-7" x1="689.42" y1="238.36" x2="706.9" y2="238.36"/></svg>