<svg xmlns="http://www.w3.org/2000/svg" xmlns:xlink="http://www.w3.org/1999/xlink" version="1.1" x="0px" y="0px" viewBox="0 0 100 100" style="enable-background:new 0 0 100 100;" xml:space="preserve"><path d="M25.833,54.798c-2.068,0-3.75,1.682-3.75,3.75s1.682,3.75,3.75,3.75s3.75-1.682,3.75-3.75S27.901,54.798,25.833,54.798z   M25.833,61.048c-1.379,0-2.5-1.121-2.5-2.5s1.121-2.5,2.5-2.5c1.379,0,2.5,1.121,2.5,2.5S27.212,61.048,25.833,61.048z M75,54.798  c-2.068,0-3.75,1.682-3.75,3.75s1.682,3.75,3.75,3.75c2.068,0,3.75-1.682,3.75-3.75S77.068,54.798,75,54.798z M75,61.048  c-1.379,0-2.5-1.121-2.5-2.5s1.121-2.5,2.5-2.5c1.379,0,2.5,1.121,2.5,2.5S76.379,61.048,75,61.048z M88.333,50.558v-6.177  c0-1.686-3.69-3.843-6.498-5.24l0.838-0.838c0.221-0.221,0.3-0.547,0.204-0.845c-0.096-0.297-0.35-0.516-0.659-0.567  c-0.942-0.154-23.164-3.755-31.957-2.08c-8.292,1.579-17.845,7.081-19.272,7.921c-2.269,0.197-15.312,1.452-17.872,4.438  c-2.497,2.913-2.34,8.597-2.29,9.615l-0.795,2.782c-0.07,0.245-0.024,0.508,0.124,0.715c0.149,0.207,0.383,0.334,0.637,0.346  l8.414,0.401c1.009,2.683,3.594,4.6,6.625,4.6c3.025,0,5.606-1.909,6.619-4.583h35.928c1.014,2.674,3.594,4.583,6.619,4.583  s5.606-1.909,6.619-4.583h2.548c2.003,0,5.833-1.46,5.833-3.75v-4.583C90,51.737,89.006,50.967,88.333,50.558z M86.667,47.298h-2.5  c-1.192,0-2.686-1.186-3.612-2.083h6.112V47.298z M14.167,48.53v0.017h4.756c-0.566,0.479-1.338,1.061-1.971,1.271  c-0.844,0.281-2.717,0.569-3.761,0.715C13.43,49.796,13.746,49.103,14.167,48.53z M25.833,63.964c-2.987,0-5.417-2.43-5.417-5.417  s2.43-5.417,5.417-5.417s5.417,2.43,5.417,5.417S28.82,63.964,25.833,63.964z M75,63.964c-2.987,0-5.417-2.43-5.417-5.417  s2.43-5.417,5.417-5.417c2.987,0,5.417,2.43,5.417,5.417S77.987,63.964,75,63.964z M88.333,57.298c0,0.899-2.621,2.083-4.167,2.083  H82.03c0.032-0.274,0.054-0.551,0.054-0.833c0-3.906-3.177-7.083-7.083-7.083s-7.083,3.177-7.083,7.083  c0,0.282,0.021,0.559,0.054,0.833H32.863c0.032-0.274,0.054-0.551,0.054-0.833c0-3.906-3.177-7.083-7.083-7.083  s-7.083,3.177-7.083,7.083c0,0.269,0.018,0.534,0.048,0.795l-6.874-0.327l0.544-1.906c0.026-0.092,0.037-0.188,0.03-0.284  c-0.003-0.041-0.175-2.824,0.446-5.416c0.927-0.125,3.243-0.457,4.271-0.8c1.328-0.443,3.009-2.113,3.079-2.184  c0.119-0.119,0.155-0.298,0.09-0.454c-0.064-0.156-0.216-0.257-0.385-0.257h-4.932c2.778-1.665,11.125-2.909,16.251-3.336  c0.127-0.011,0.25-0.05,0.359-0.116c0.103-0.062,10.388-6.192,18.894-7.813c7.174-1.367,24.403,1.03,29.76,1.837l-0.505,0.506  c-0.192,0.192-0.278,0.465-0.232,0.732c0.047,0.267,0.221,0.495,0.466,0.611c3.337,1.57,6.425,3.571,6.605,4.246h-7.083  c-0.163,0-0.31,0.095-0.379,0.243c-0.068,0.148-0.044,0.322,0.062,0.445c0.107,0.125,2.651,3.062,4.9,3.062h2.5v2.917  c0,0.315,0.178,0.603,0.46,0.745c0.547,0.276,1.147,0.751,1.207,0.922V57.298z M74.863,38.782c-0.096-0.12-0.233-0.201-0.385-0.226  c-0.617-0.103-15.191-2.503-23.117-1.251c-7.984,1.261-15.391,6.965-15.703,7.207c-0.155,0.121-0.24,0.304-0.24,0.493h-0.001v8.333  c0,1.481,0.428,2.818,0.787,3.678c0.283,0.677,0.939,1.114,1.673,1.114H66.49c0.109,0,0.2-0.084,0.208-0.193  c0.261-3.597,2.789-6.599,6.291-7.468c0.078-0.019,0.137-0.081,0.154-0.159c0.418-1.981,0.934-5.421-0.042-7.171  c1.787-0.682,3.066-1.254,3.198-1.313c0.176-0.079,0.306-0.236,0.351-0.423c0.045-0.188,0.001-0.386-0.119-0.537L74.863,38.782z   M57.921,38.209l0.386,6.172h-2.448l0.363-6.178C56.779,38.197,57.346,38.199,57.921,38.209z M51.556,38.54  c1.144-0.181,2.445-0.281,3.831-0.32l-0.362,6.161H41.25v-1.988C44.053,40.828,47.769,39.138,51.556,38.54z M40.417,42.869v1.512  h-2.413C38.647,43.95,39.466,43.426,40.417,42.869z M36.588,56.857c-0.344-0.825-0.755-2.105-0.755-3.517v-7.747  c0.066,0.023,0.136,0.038,0.208,0.038h18.909c-0.248,1.082-0.367,2.187-0.341,3.29c0.054,2.309,0.197,5.684,0.573,8.793H37.876  C37.311,57.714,36.806,57.378,36.588,56.857z M72.761,50.097c-3.548,0.937-6.118,3.969-6.463,7.617H55.602  c-0.398-3.275-0.532-6.908-0.576-8.803c-0.026-1.1,0.095-2.203,0.35-3.28h7.749c2.749,0,6.714-1.268,9.577-2.341  C73.669,44.909,73.098,48.462,72.761,50.097z M63.125,44.381h-3.984l-0.385-6.153c6.644,0.194,13.894,1.303,15.281,1.523  l1.005,1.256C72.918,41.906,66.741,44.381,63.125,44.381z"></path></svg>