<svg id="Layer_1" data-name="Layer 1" xmlns="http://www.w3.org/2000/svg" viewBox="0 0 841.89 595.28"><defs><style>.cls-1{fill:#d8d8d8;stroke:#7b7b7b;stroke-miterlimit:10;stroke-width:2px;}.cls-2{font-size:53.75px;fill:#929090;font-family:Open Sans;font-weight:700;}</style></defs><title>Icons_UI Design</title><rect class="cls-1" x="415.87" y="307.84" width="25.13" height="78.3"/><path class="cls-1" d="M405.9,386.15h45.81A11.85,11.85,0,0,1,463.57,398v10.92a0,0,0,0,1,0,0H393.29a0,0,0,0,1,0,0V398.76A12.61,12.61,0,0,1,405.9,386.15Z"/><path class="cls-1" d="M392.45,408.92h74.2A15.33,15.33,0,0,1,482,424.25v7.45a0,0,0,0,1,0,0H374.89a0,0,0,0,1,0,0v-5.22A17.56,17.56,0,0,1,392.45,408.92Z"/><path class="cls-1" d="M374.73,431.7H484.05a12.49,12.49,0,0,1,12.49,12.49v10.29a0,0,0,0,1,0,0H360.32a0,0,0,0,1,0,0v-8.36A14.41,14.41,0,0,1,374.73,431.7Z"/><path class="cls-1" d="M490.81,222.55a63.16,63.16,0,1,0-94.12,55c3.74,30.47,19.52,30.25,19.52,30.25s6.1,0.52,25.13,0c17.65-.48,21.49-29,21.95-33.15A63.08,63.08,0,0,0,490.81,222.55Z"/><text class="cls-2" transform="translate(409.81 240.14)">A</text></svg>