<svg xmlns="http://www.w3.org/2000/svg" xmlns:xlink="http://www.w3.org/1999/xlink" version="1.1" x="0px" y="0px" viewBox="0 0 100 100" style="enable-background:new 0 0 100 100;" xml:space="preserve"><path d="M72.991,55.173c-2.11,0-3.827,1.717-3.827,3.827c0,2.11,1.717,3.827,3.827,3.827c2.11,0,3.827-1.717,3.827-3.827  C76.818,56.89,75.101,55.173,72.991,55.173z M72.991,61.551c-1.407,0-2.551-1.144-2.551-2.551c0-1.407,1.144-2.551,2.551-2.551  c1.407,0,2.551,1.144,2.551,2.551C75.542,60.407,74.398,61.551,72.991,61.551z M23.665,55.173c-2.11,0-3.827,1.717-3.827,3.827  c0,2.11,1.717,3.827,3.827,3.827S27.492,61.11,27.492,59C27.492,56.89,25.775,55.173,23.665,55.173z M23.665,61.551  c-1.407,0-2.551-1.144-2.551-2.551c0-1.407,1.144-2.551,2.551-2.551c1.407,0,2.551,1.144,2.551,2.551  C26.217,60.407,25.072,61.551,23.665,61.551z M89.751,52.446l-1.03-1.03c-0.019-1.166-0.137-4.881-0.891-7.142  c-0.739-2.217-3.998-6.035-5.236-7.434l0.857-1.142c0.191-0.255,0.224-0.594,0.085-0.881s-0.425-0.472-0.744-0.48  c-1.342-0.034-32.978-0.824-41.099,1.74c-7.403,2.338-14.49,8.2-15.825,9.342c-1.845,0.174-11.621,1.341-13.948,6.643  c-0.65,0.475-2.288,1.917-1.845,4.127c0.474,2.373,0.934,4.236,2.154,4.846c0.899,0.45,4.211,0.816,5.322,0.928  c1.104,2.268,3.426,3.839,6.114,3.839c2.512,0,4.704-1.372,5.883-3.402h37.49v-0.115c1.161,2.095,3.393,3.517,5.953,3.517  c3.2,0,5.884-2.224,6.606-5.205c1.651-0.102,6.174-0.409,7.632-0.773c2.072-0.518,2.626-4.867,2.768-6.713  C90.017,52.865,89.926,52.621,89.751,52.446z M86.578,46.289c0.438,2.41,0.446,5.442,0.446,5.482h-0.486l-0.564-3.664  C85.87,47.432,86.099,46.759,86.578,46.289z M15.362,50.496h1.776c-0.775,0.501-1.722,1.098-2.167,1.321  c-0.349,0.174-0.79,0.268-1.164,0.319C14.196,51.519,14.73,50.975,15.362,50.496z M23.665,64.103c-2.814,0-5.103-2.289-5.103-5.103  c0-2.814,2.289-5.103,5.103-5.103s5.103,2.289,5.103,5.103C28.768,61.814,26.479,64.103,23.665,64.103z M72.991,64.103  c-2.814,0-5.103-2.289-5.103-5.103c0-2.814,2.289-5.103,5.103-5.103s5.103,2.289,5.103,5.103  C78.094,61.814,75.805,64.103,72.991,64.103z M86.817,58.175c-1.147,0.287-4.892,0.571-7.029,0.707  c-0.064-3.697-3.086-6.686-6.798-6.686c-3.751,0-6.804,3.052-6.804,6.804c0,0.588,0.083,1.156,0.224,1.701H30.245  c0.141-0.545,0.224-1.113,0.224-1.701c0-3.751-3.052-6.804-6.804-6.804S16.862,55.249,16.862,59c0,0.407,0.042,0.804,0.111,1.191  c-1.764-0.201-3.604-0.487-3.983-0.676c-0.573-0.286-1.063-2.736-1.247-3.658c-0.3-1.501,1.242-2.468,1.305-2.506  c0.126-0.076,0.22-0.188,0.292-0.315c0.457-0.027,1.339-0.122,2.012-0.459c0.864-0.432,3.342-2.083,3.447-2.153  c0.156-0.104,0.225-0.298,0.171-0.477c-0.054-0.179-0.22-0.302-0.407-0.302h-1.871c3.87-2.097,9.509-2.548,9.588-2.554  c0.185-0.014,0.36-0.088,0.499-0.21c0.076-0.067,7.721-6.749,15.427-9.182c6.823-2.155,32.155-1.826,38.891-1.697l-0.282,0.376  c-0.245,0.327-0.223,0.783,0.053,1.085c1.267,1.383,4.698,5.398,5.348,7.348c0.057,0.171,0.109,0.354,0.159,0.544l-0.086,0.064  c-0.879,0.654-1.322,1.734-1.155,2.817l0.619,4.025c0.032,0.207,0.21,0.361,0.42,0.361h1.276v-0.073l0.819,0.819  C88.017,55.924,87.293,58.056,86.817,58.175z M77.156,36.901c-1.643-0.329-28.74,0.294-33.011,1.28  c-5.595,1.291-13.92,7.501-14.272,7.765c-0.201,0.151-0.295,0.406-0.239,0.652c0.056,0.245,0.25,0.435,0.497,0.484  c0.043,0.009,0.556,0.109,1.404,0.211c-2.149,5.1,0.531,12.117,0.65,12.422c0.032,0.082,0.11,0.136,0.198,0.136h32.136  c0.059,0,0.115-0.036,0.155-0.08c0.04-0.043,0.06-0.113,0.055-0.172c-0.015-0.198-0.03-0.397-0.03-0.599  c0-3.893,2.652-7.215,6.448-8.079c0.104-0.024,0.175-0.121,0.164-0.227c-0.152-1.616-0.541-3.569-0.746-4.534  c4.511-0.187,7.741-0.323,8.192-0.342c0.14-0.006,0.274-0.058,0.382-0.147l2.551-2.126c0.215-0.179,0.288-0.477,0.18-0.735  C81.641,42.255,79.546,37.379,77.156,36.901z M50.888,45.685l0.406-6.909c0.282-0.016,0.568-0.033,0.861-0.049v6.908  C51.73,45.651,51.308,45.668,50.888,45.685z M53.006,38.681c4.099-0.213,8.972-0.381,13.252-0.486l1.136,6.818  c-4.391,0.181-9.525,0.392-14.389,0.586V38.681z M68.25,44.979l-1.134-6.803c0.288-0.007,0.573-0.013,0.854-0.019l1.505,6.772  C69.075,44.944,68.667,44.961,68.25,44.979z M44.432,39.424c0.938-0.216,3.152-0.418,6.008-0.597l-0.405,6.892  c-7.387,0.293-13.588,0.525-14.675,0.525c-0.094,0-0.185-0.001-0.278-0.002l-0.347-2.081C37.626,42.308,41.49,40.103,44.432,39.424z   M33.956,44.665l0.259,1.556c-0.895-0.033-1.682-0.1-2.303-0.17C32.458,45.669,33.159,45.189,33.956,44.665z M31.978,47.343  c0.888,0.094,2.048,0.176,3.381,0.176c1.11,0,7.272-0.23,14.623-0.521c-0.138,1.735-0.502,7.22-0.086,12.427H32.53  C32.163,58.409,29.973,51.922,31.978,47.343z M70.87,50.55c-3.894,0.971-6.596,4.42-6.596,8.45c0,0.141,0.007,0.28,0.016,0.425  H50.323C49.9,54.187,50.276,48.65,50.41,46.981c6.604-0.262,14.094-0.57,19.725-0.803C70.326,47.071,70.705,48.951,70.87,50.55z   M78.489,44.552c-0.828,0.035-3.945,0.166-8.15,0.34l-1.501-6.753c4.295-0.084,7.562-0.088,8.068,0.013  c1.207,0.241,2.764,2.862,3.602,4.718L78.489,44.552z"></path></svg>