<svg xmlns="http://www.w3.org/2000/svg" xmlns:xlink="http://www.w3.org/1999/xlink" version="1.1" x="0px" y="0px" viewBox="0 0 100 100" enable-background="new 0 0 100 100" xml:space="preserve"><g><path d="M76.236,54.318c-2.56,0-4.641,2.082-4.641,4.64s2.082,4.64,4.641,4.64c2.558,0,4.64-2.082,4.64-4.64   S78.795,54.318,76.236,54.318z M76.236,62.098c-1.731,0-3.141-1.408-3.141-3.14s1.409-3.14,3.141-3.14c1.73,0,3.14,1.408,3.14,3.14   S77.968,62.098,76.236,62.098z"></path><path d="M98.659,52.777l-0.515-0.211l-0.604-9.923c-0.032-0.528-0.47-0.939-0.998-0.939H68.121l-1.4-8.173   c-0.08-0.461-0.469-0.806-0.936-0.83c-2.209-0.112-21.699-1.07-25.241,0.045c-6.823,2.148-13.326,7.387-14.699,8.535   c-2.167,0.167-13.978,1.11-18.18,2.191c-3.857,0.992-5.191,4.514-5.414,6.563c-0.434,0.452-1.187,1.359-1.422,2.41   c-0.307,1.367,0.113,4.385,0.448,5.137c0.173,0.391,0.645,1.036,6.437,2.932c0.74,4.126,4.338,7.273,8.674,7.273   c4.07,0,7.496-2.771,8.514-6.525h42.824c1.018,3.754,4.443,6.525,8.514,6.525c4.334,0,7.941-3.141,8.682-7.266   c1.904-0.082,9.303-0.453,11.292-1.262c2.542-1.033,3.017-5.006,3.063-5.455C99.318,53.364,99.068,52.947,98.659,52.777z    M96.087,51.682c-0.274-0.062-0.483-0.131-0.543-0.19c-0.249-0.332-1.224-3-2.081-5.545l2.221-0.894L96.087,51.682z M65.594,51.75   c-0.268,0.898-1.734,4.775-2.053,5.616H48.462l0.49-3.296c0.003-0.019,0.003-0.037,0.002-0.055   c-0.004-0.057-0.406-5.625-0.366-6.763c0.029-0.824,0.102-2.18,0.14-2.889c2.307-0.098,4.81-0.222,7.521-0.374   c0.629-0.035,1.021-0.057,1.104-0.059c0.498,0,2.59-0.805,6.221-2.392c0.068-0.03,0.127-0.075,0.182-0.122   c0.516,0.686,1.492,1.81,2.559,2.157C66.414,47.442,65.807,51.041,65.594,51.75z M57.318,42.432   c-0.135,0.005-0.536,0.026-1.15,0.061c-2.555,0.143-4.867,0.257-6.962,0.348v-6.369c4.884,0.008,10.497,0.22,12.258,0.291   l0.929,3.656C60.143,41.391,57.773,42.352,57.318,42.432z M7.387,45.68c0.354,0.02,1.037,0.153,1.729,0.326   c-0.652,0.845-1.461,1.846-1.735,2.055c-0.291,0.223-1.482,0.817-2.426,1.265l-0.24-0.849C5.138,47.453,5.927,46.307,7.387,45.68z    M3.567,56.865c-0.218-0.1-0.395-0.186-0.515-0.258c-0.072-0.275-0.156-0.766-0.222-1.311l0.471-1.068l1.043,1.854   C4.075,56.357,3.8,56.635,3.567,56.865z M16.385,65.788c-3.766,0-6.83-3.063-6.83-6.83s3.064-6.83,6.83-6.83   c3.766,0,6.83,3.063,6.83,6.83S20.151,65.788,16.385,65.788z M76.236,65.788c-3.766,0-6.83-3.063-6.83-6.83s3.064-6.83,6.83-6.83   s6.83,3.063,6.83,6.83S80.002,65.788,76.236,65.788z M85.042,58.516c-0.233-4.662-4.088-8.387-8.808-8.387   c-4.868,0-8.83,3.961-8.83,8.83c0,0.104,0.013,0.203,0.016,0.305H25.2c0.004-0.103,0.015-0.203,0.015-0.306   c0-4.869-3.961-8.83-8.83-8.83c-4.672,0-8.498,3.649-8.8,8.248c-1.054-0.354-2.146-0.749-3.016-1.092   c0.214-0.218,0.456-0.466,0.754-0.774c0.153-0.158,0.184-0.4,0.076-0.593l-1.717-3.051c-0.093-0.165-0.258-0.263-0.46-0.255   c-0.189,0.01-0.357,0.125-0.433,0.299l-0.025,0.056c0.005-0.028,0.009-0.058,0.014-0.083c0.151-0.674,0.85-1.419,1.104-1.648   c0.201-0.178,0.322-0.435,0.334-0.703c0.001-0.02,0.006-0.096,0.018-0.209c0.107,0.145,0.244,0.21,0.398,0.21   c0.072,0,0.144-0.015,0.21-0.046c0.264-0.122,2.592-1.206,3.144-1.628c0.551-0.421,2.076-2.439,2.376-2.84   c0.207-0.275,0.08-0.681-0.262-0.781c-0.115-0.033-0.29-0.082-0.496-0.137c5.348-0.994,16.587-1.838,16.711-1.847   c0.214-0.016,0.417-0.101,0.58-0.241c0.07-0.061,7.115-6.111,14.246-8.356c2.592-0.817,17.312-0.304,23.74,0.005   c0,0,1.415,8.323,1.417,8.378c-0.966-0.404-1.876-1.547-2.28-2.109c0.01-0.085-1.24-5.076-1.24-5.076   c-0.082-0.321-0.363-0.55-0.694-0.565c-0.656-0.029-16.113-0.706-20.29,0.01c-4.274,0.733-12.64,7.018-12.994,7.285   c-0.212,0.16-0.324,0.42-0.293,0.684c0.008,0.067-0.1,9.491-0.1,9.491c0,0.038,0.008,0.076,0.024,0.111   c0.697,1.468,1.169,3.077,1.404,4.782c0.017,0.123,0.123,0.216,0.248,0.216h33.63c0.104,0,0.197-0.063,0.233-0.161   c0.074-0.195,1.822-4.79,2.127-5.813c0.289-0.969,0.828-4.59,0.742-8.305c0.139,0.073,0.295,0.116,0.461,0.116H95.6L95.617,44   l-2.967,1.195c-0.246,0.099-0.371,0.371-0.287,0.622c0.729,2.189,2.019,5.927,2.453,6.363c0.285,0.284,0.832,0.442,1.332,0.533   l0.037,0.602c0,0.004,0.002,0.008,0.002,0.012h-0.351c-0.16,0-0.312,0.076-0.405,0.206L92.2,57.986   C89.986,58.234,87.166,58.42,85.042,58.516z M37.971,44.636c2.793,0,6.207-0.084,10.255-0.252c-0.04,0.723-0.109,2.041-0.138,2.85   c-0.041,1.135,0.331,6.313,0.365,6.79l-0.497,3.343H30.301c-0.248-1.655-0.715-3.222-1.391-4.659l0.14-8.801   C30.27,44.393,33.218,44.636,37.971,44.636z M31.012,42.828c2.519-1.794,8.057-5.541,11.038-6.052   c1.221-0.209,3.529-0.291,6.155-0.303v6.409C37.907,43.304,33.169,43.122,31.012,42.828z M95.458,57.407   c-0.356,0.145-1.034,0.28-1.896,0.405l2.531-3.488h1.034v-0.014l0.039,0.016C96.93,55.467,96.372,57.036,95.458,57.407z"></path><path d="M16.385,54.318c-2.559,0-4.64,2.082-4.64,4.64s2.082,4.64,4.64,4.64c2.558,0,4.64-2.082,4.64-4.64   S18.944,54.318,16.385,54.318z M16.385,62.098c-1.731,0-3.14-1.408-3.14-3.14s1.409-3.14,3.14-3.14c1.731,0,3.14,1.408,3.14,3.14   S18.117,62.098,16.385,62.098z"></path></g></svg>