<svg xmlns="http://www.w3.org/2000/svg" xmlns:xlink="http://www.w3.org/1999/xlink" version="1.1" x="0px" y="0px" viewBox="0 0 100 100" style="enable-background:new 0 0 100 100;" xml:space="preserve"><path d="M77.472,53.416c-1.99,0-3.61,1.619-3.61,3.61c0,1.99,1.619,3.61,3.61,3.61s3.61-1.619,3.61-3.61  C81.082,55.036,79.462,53.416,77.472,53.416z M77.472,59.362c-1.288,0-2.336-1.048-2.336-2.336s1.048-2.336,2.336-2.336  s2.336,1.048,2.336,2.336S78.76,59.362,77.472,59.362z M28.21,53.416c-1.99,0-3.61,1.619-3.61,3.61c0,1.99,1.619,3.61,3.61,3.61  s3.61-1.619,3.61-3.61C31.819,55.036,30.2,53.416,28.21,53.416z M28.21,59.362c-1.288,0-2.336-1.048-2.336-2.336  s1.048-2.336,2.336-2.336c1.288,0,2.336,1.048,2.336,2.336S29.497,59.362,28.21,59.362z M88.865,48.383l-0.302-0.201l-2.874-6.98  c-0.121-0.292-0.394-0.494-0.709-0.522l-4.567-0.415c-16.585-5.784-27.266-4.346-33.652-3.486l-0.615,0.083  c-6.102,0.814-14.247,5.652-15.477,6.4c-10.206,1.656-14.84,3.329-16.363,3.973c-0.62,0.262-1.103,0.748-1.361,1.368l-1.805,4.332  l-0.395,0.395c-0.693,0.693-0.928,1.737-0.598,2.659l1.346,3.769c0.364,1.02,1.321,1.691,2.398,1.691c0.026,0,0.052,0,0.078-0.001  l8.618-0.258c1.278,1.721,3.319,2.843,5.623,2.843c2.455,0,4.615-1.271,5.867-3.188l36.936-1.106c1.063,2.52,3.558,4.293,6.46,4.293  c3.073,0,5.684-1.991,6.627-4.748l3.208-0.642c0.702-0.14,1.316-0.573,1.685-1.188l0.645-1.076C89.874,55.984,90,55.531,90,55.069  v-4.566C90,49.649,89.576,48.856,88.865,48.383z M85.384,44.923h-5.251l0.764-1.274h3.962L85.384,44.923z M14.38,49.576l7.444-0.354  l-0.204,0.204c-0.669,0.669-1.555,1.095-2.495,1.2l-5.433,0.604L14.38,49.576z M28.21,62.334c-2.927,0-5.308-2.381-5.308-5.308  c0-2.927,2.381-5.308,5.308-5.308s5.308,2.381,5.308,5.308C33.518,59.953,31.137,62.334,28.21,62.334z M77.472,62.334  c-2.927,0-5.308-2.381-5.308-5.308c0-2.927,2.381-5.308,5.308-5.308c2.927,0,5.308,2.381,5.308,5.308  C82.781,59.953,80.399,62.334,77.472,62.334z M88.301,55.069c0,0.154-0.042,0.305-0.121,0.437l-0.645,1.076  c-0.123,0.205-0.328,0.349-0.562,0.396l-2.517,0.503c0.01-0.151,0.023-0.301,0.023-0.455c0-3.864-3.144-7.007-7.007-7.007  s-7.007,3.143-7.007,7.007c0,0.35,0.034,0.692,0.084,1.028l-35.653,1.067c0.208-0.662,0.321-1.366,0.321-2.096  c0-3.864-3.144-7.007-7.007-7.007s-7.007,3.143-7.007,7.007c0,0.878,0.17,1.716,0.466,2.492l-7.75,0.232  c-0.38,0.008-0.701-0.216-0.825-0.563l-1.347-3.77c-0.109-0.307-0.032-0.655,0.199-0.886l0.514-0.514  c0.078-0.078,0.141-0.171,0.183-0.274l0.675-1.619l5.9-0.656c1.132-0.126,2.198-0.638,3.002-1.443l0.981-0.981  c0.124-0.124,0.159-0.312,0.088-0.472c-0.071-0.16-0.226-0.258-0.409-0.253l-7.632,0.363c1.723-0.693,6.289-2.229,15.857-3.772  c0.111-0.018,0.216-0.057,0.312-0.116c0.088-0.054,8.834-5.435,14.954-6.25l0.618-0.083c6.247-0.841,16.704-2.25,32.963,3.44  c0.066,0.023,0.134,0.038,0.204,0.044l4.159,0.378l0.196,0.475h-3.853c-0.149,0-0.287,0.078-0.364,0.206l-1.274,2.123  c-0.079,0.131-0.081,0.295-0.005,0.428s0.216,0.215,0.37,0.215h6.351l1.357,3.296c0.064,0.156,0.174,0.289,0.314,0.383l0.518,0.345  c0.237,0.158,0.378,0.422,0.378,0.706V55.069z M74.326,41.152c-6.198-2.656-17.459-3.103-25.381-2.17  c-7.317,0.861-13.647,5.868-13.914,6.081c-0.154,0.123-0.235,0.308-0.235,0.497h-0.003v4.402c0,1.324,0.351,2.63,1.014,3.777  l1.558,2.692c0.531,0.918,1.506,1.478,2.562,1.478c0.03,0,0.06,0,0.09-0.001l28.338-0.849c0.04-0.001,0.078-0.013,0.111-0.035  c0.443-0.294,0.747-0.77,0.832-1.305c0.251-1.583,0.953-3.048,2.029-4.238c0.203-0.225,0.348-0.474,0.43-0.739l2.024-6.578  c0.012-0.022,0.028-0.041,0.037-0.065l0.849-2.123C74.795,41.653,74.643,41.288,74.326,41.152z M57.275,39.809  c0.432,0.001,0.865,0.007,1.299,0.015v4.058l-2.056,0.092L57.275,39.809z M59.848,39.861c4.988,0.186,9.918,0.882,13.4,2.228  l-0.462,1.154l-12.939,0.581V39.861z M49.093,40.247c2.111-0.248,4.462-0.398,6.886-0.432l-0.767,4.218l-12.545,0.564l-1.03-2.06  C43.804,41.504,46.396,40.564,49.093,40.247z M40.498,43.108l0.776,1.551l-3.701,0.166C38.343,44.322,39.341,43.716,40.498,43.108z   M40.003,57.483c-0.943,0.033-1.804-0.457-2.271-1.265l-1.558-2.692c-0.626-1.082-0.957-2.314-0.957-3.564v-3.805  c0.067,0.024,0.138,0.04,0.212,0.04c0.01,0,0.019,0,0.029-0.001l20.038-0.901l-0.089,0.178c-0.148,0.295-0.248,0.611-0.3,0.937  l-1.032,6.537c-0.115,0.733-0.127,1.477-0.035,2.21l0.237,1.898L40.003,57.483z M71.35,50.616c-0.063,0.205-0.178,0.4-0.339,0.579  c-1.131,1.251-1.869,2.792-2.133,4.457c-0.063,0.398-0.28,0.754-0.598,0.985l-13.576,0.406l-0.242-1.938  c-0.087-0.694-0.075-1.398,0.034-2.091l1.032-6.537c0.045-0.283,0.132-0.557,0.26-0.813l0.195-0.39l17.25-0.775L71.35,50.616z"></path></svg>