<svg id="Layer_1" data-name="Layer 1" xmlns="http://www.w3.org/2000/svg" viewBox="0 0 841.89 595.28"><defs><style>.cls-1{fill:#ababab;}.cls-1,.cls-2,.cls-3,.cls-5,.cls-7{stroke:#7b7b7b;}.cls-1,.cls-11,.cls-2,.cls-3,.cls-4,.cls-5,.cls-6,.cls-7,.cls-8{stroke-miterlimit:10;}.cls-1,.cls-11,.cls-3,.cls-8{stroke-width:3px;}.cls-2{fill:#d8d8d8;}.cls-2,.cls-4{stroke-width:2px;}.cls-3,.cls-7{fill:#f0efef;}.cls-11,.cls-4,.cls-8{fill:none;}.cls-4,.cls-6,.cls-8{stroke:#6d6d6d;}.cls-5{fill:#bfbfbf;}.cls-6{fill:#fff;}.cls-9{font-size:33.05px;font-family:Open Sans;font-weight:700;}.cls-10,.cls-9{fill:#929090;}.cls-10{fill-rule:evenodd;}.cls-11{stroke:#fff;}</style></defs><title>Car Icon_UI Design_</title><path class="cls-1" d="M273.79,299.38v86.34s-0.27,5.9,11.53,6.52,28.26,0,28.26,0,6.21-1.24,6.52-5.28,0-35.06,0-35.06"/><path class="cls-1" d="M607.85,301.67V388s0.27,5.9-11.53,6.52-28.26,0-28.26,0-6.21-1.24-6.52-5.28,0-35.06,0-35.06"/><path class="cls-2" d="M322.53,139.88l-45.47,81.59a27.85,27.85,0,0,0-2.38,5.65c-1.72,5.82-5,18.75-5,32.2,0,18.17,8.85,70.35,8.85,70.35s4.19,20,12.11,21.43,232.94,2.33,232.94,2.33h52.33A27.57,27.57,0,0,0,603,331.88q0.13-.63.25-1.29c3.2-18,10-57.93,10.76-73.72,0.11-2.31-.31-9.22-0.58-11.52-0.85-7.25-2.89-18.8-10.65-29.37-9.6-13.09-38-68.29-41.56-75.22-0.2-.38-0.37-0.77-0.55-1.16-1.14-2.57-8.39-15.49-39.42-16.33-34.48-.93-159.8,0-159.8,0s-13.39,0-24.68,4.22A27.35,27.35,0,0,0,322.53,139.88Z"/><path class="cls-3" d="M294.67,254.25l43.41,1.94a5.24,5.24,0,0,1,.77.09c2.17,0.42,12.38,2.83,15.43,11.42a49.82,49.82,0,0,1,2.11,7.69,5.43,5.43,0,0,1-5.52,6.41l-42.67-1.36h-0.37c-1.73.07-16.4,0.39-18.16-8.08a48.15,48.15,0,0,1-.66-13.09A5.43,5.43,0,0,1,294.67,254.25Z"/><path class="cls-3" d="M587.95,254.25l-43.41,1.94a5.24,5.24,0,0,0-.77.09c-2.17.42-12.38,2.83-15.43,11.42a49.82,49.82,0,0,0-2.11,7.69,5.43,5.43,0,0,0,5.52,6.41l42.67-1.36h0.37c1.73,0.07,16.4.39,18.16-8.08a48.15,48.15,0,0,0,.66-13.09A5.43,5.43,0,0,0,587.95,254.25Z"/><path class="cls-3" d="M333.16,142.22s156.23-5.28,218.66,2.17l31.37,67.09s-169.89-14.91-282.64,0Z"/><path class="cls-4" d="M291.85,209.93s-1.24,2.17,7.76,8.39c8.47,5.84,49.32,30.34,54.19,33.26,0.33,0.2.57,0.5,0.91,0.69,5.54,3.09,12.47,12.12,13.85,20.41,0,0,2.08,7,10.91,8.11"/><path class="cls-4" d="M591.2,209.93s1.24,2.17-7.76,8.39c-8.47,5.84-49.32,30.34-54.19,33.26-0.33.2-.57,0.5-0.91,0.69-5.54,3.09-12.47,12.12-13.85,20.41,0,0-1.33,9.13-12.93,8.11h0"/><path class="cls-5" d="M382.23,257.76s51.56-7.14,117.71,0c0,0,9.32.93,8.7,8.7s-3.73,21.12-3.73,21.12-4.35,6.52-17.39,6.83-95.35,0-95.35,0-11.49,0-14.91-7.76-3.11-22.36-3.11-22.36S373.91,258.69,382.23,257.76Z"/><path class="cls-3" d="M593.12,205.58h9.94v-9s1.24-8.7,11.8-9,25.47-.93,25.47,14.6c0,0,1.24,11.8-11.18,12.11s-27.33,0-27.33,0l-1.24,5.9s-3.73,2.48-6.52-3.73S589.4,207.13,593.12,205.58Z"/><path class="cls-3" d="M289.68,205.58h-9.94v-9s-1.24-8.7-11.8-9-25.47-.93-25.47,14.6c0,0-1.24,11.8,11.18,12.11s27.33,0,27.33,0l1.24,5.9s3.73,2.48,6.52-3.73S293.4,207.13,289.68,205.58Z"/><line class="cls-6" x1="352.41" y1="213.96" x2="384.72" y2="245.64"/><line class="cls-6" x1="530.64" y1="213.96" x2="498.33" y2="245.64"/><path class="cls-1" d="M304,313.66l269.9,0.62s17.17-.31,3.71,15c0,0-3.55,4-19.24,4.57-18.31.73-245.06,0-245.06,0s-6.83,0-12.73-6.83S296.52,313.6,304,313.66Z"/><circle class="cls-7" cx="315.94" cy="323.96" r="7.86"/><circle class="cls-7" cx="565.96" cy="323.96" r="7.86"/><path class="cls-8" d="M374.15,272.67a984.05,984.05,0,0,1,133.71,0"/><path class="cls-8" d="M376.24,280.78a935.46,935.46,0,0,1,130.36,0"/><path class="cls-4" d="M350.45,261.93s-2.3-7.34,7.48-7.35c5.89,0,55.27-13.29,165.31,0,0,0,8.43,2.36,6.22,10.72"/><text class="cls-9" transform="translate(445.13 471.47)">Front</text><path class="cls-10" d="M392.31,482a16.05,16.05,0,0,0,12.82,0,17.24,17.24,0,0,0,9.26-9.54,15.51,15.51,0,0,0,0-12.51,17.2,17.2,0,0,0-9.26-9.52c-1.19-.28-2.09-0.59-3.28-0.9a17.61,17.61,0,0,0-9.54.9,16.82,16.82,0,0,0-9.54,9.52,18.28,18.28,0,0,0,0,12.51,16.86,16.86,0,0,0,9.54,9.54h0Zm-9.54-9.54,0-12.51,9.54-9.52,12.82,0,9.26,9.52,0,12.51M405.13,482,392,456.34a11.67,11.67,0,0,1,13.11,0c9.83,6.55,5.08,21.72-6.55,21.72S382.2,462.89,392,456.34h0Zm-24.17-2.68c-1.76,0-3.56.31-4.75-1.19-2.71-2.09-.9-6.24,2.71-6.24,2,0,3.56,0,5,1.19a3.66,3.66,0,0,1,1.19,2.68c0,2.09-1.76,3.56-4.18,3.56h0Zm-15.48,36.61h66.48a4.57,4.57,0,0,0,4.46-4.46V447.7a4.32,4.32,0,0,0-4.18-4.44h-5.37l-1.19-6.55a3.49,3.49,0,0,0-3.28-2.68H386.66a3.89,3.89,0,0,0-3.61,2.68l-1.19,6.55H371.13l-0.85-1.8c0-2.09-3.61-2.68-5.7-2.68-2.94,0-6.55-.59-8.93.59-2.09,1.19-1.19,2.09-2.09,3.89H351.8a4.48,4.48,0,0,0-4.18,4.44V485.8a4.63,4.63,0,0,0,4.75,4.46h0Z"/><rect class="cls-11" x="205.27" y="66.89" width="469.05" height="469.05" rx="20.54" ry="20.54"/></svg>