<svg id="Layer_1" data-name="Layer 1" xmlns="http://www.w3.org/2000/svg" viewBox="0 0 841.89 595.28"><defs><style>.cls-1,.cls-4,.cls-8{fill:#d8d8d8;}.cls-1,.cls-2,.cls-3,.cls-4,.cls-5,.cls-6,.cls-7,.cls-8{stroke:#7b7b7b;}.cls-1,.cls-11,.cls-2,.cls-3,.cls-4,.cls-5,.cls-6,.cls-7,.cls-8{stroke-miterlimit:10;}.cls-1,.cls-2,.cls-7{stroke-width:2px;}.cls-2,.cls-5,.cls-6{fill:#f0efef;}.cls-3{fill:#ababab;}.cls-11,.cls-3,.cls-4,.cls-5{stroke-width:3px;}.cls-11,.cls-7{fill:none;}.cls-9{font-size:33.05px;font-family:Open Sans;font-weight:700;}.cls-10,.cls-9{fill:#929090;}.cls-10{fill-rule:evenodd;}.cls-11{stroke:#fff;}</style></defs><title>Car Icon_UI Design_</title><path class="cls-1" d="M693.49,269.88C690,268.58,636,248.93,563.18,243.7a2.54,2.54,0,0,1-.87-0.22l-73.48-33.54s-36.61-15.17-87.28-15c-31,.11-104-2.66-177.21,40.37a2.54,2.54,0,0,1-1.2.35L184.05,237h-0.29c-1.18-.1-10.06-0.67-10.31,4.83-0.23,5.08-.06,24.31,0,29.49a2.55,2.55,0,0,1-1,2c-2.2,1.76-7.32,6.64-7.32,14v27.34a2.54,2.54,0,0,0,1.77,2.43A245.74,245.74,0,0,0,232.62,328a2.54,2.54,0,0,0,2.59-2.57c-0.1-10.62,2.41-50,45.34-49.86,40.94,0.17,41.63,44.56,41.13,56a2.54,2.54,0,0,0,2.55,2.65H547.63a2.55,2.55,0,0,0,2.55-2.7c-0.73-11.76-.64-57.83,45.74-55.67,0,0,41.34.78,40.24,51.53a2.55,2.55,0,0,0,2.23,2.59c8.27,1,37.23,3.93,62.54-1a2.56,2.56,0,0,0,1.86-3.53c-1.22-2.82-2.93-7-3.26-9.17a34,34,0,0,1,.8-6c1.9-11.13,5.61-33.74-6.48-40.19Z"/><path class="cls-2" d="M537.69,250.36l1.54,5.42L419,253.31l-11-48.73s47.63-7.46,128.11,44A4.54,4.54,0,0,1,537.69,250.36Z"/><path class="cls-1" d="M514.67,236.32s5.62,13.59-1.81,18.92l26.37,0.54L537.84,252a8.1,8.1,0,0,0-3.55-4.24Z"/><circle class="cls-3" cx="591.91" cy="318.6" r="36.4"/><circle class="cls-4" cx="591.91" cy="318.6" r="27.35"/><circle class="cls-3" cx="278.41" cy="318.6" r="36.4"/><circle class="cls-4" cx="278.41" cy="318.6" r="27.35"/><path class="cls-5" d="M692,290.18s2-14.86-14.46-14.86H654s-7.43,0-6.43,3.41c0.51,1.72,5.22,11.47,23.29,11.24C684.34,289.81,692,290.18,692,290.18Z"/><path class="cls-3" d="M672,310.6s-8.3,2-2.94,5.76a33.38,33.38,0,0,0,20.35,6,77.41,77.41,0,0,0,11.85-.8l-1.68-5.35,0.8-6Z"/><circle class="cls-6" cx="679.19" cy="315.72" r="4.05"/><path class="cls-2" d="M398.88,204.21l9.1,48.84-109-1.87s-12.85-11.09,1.61-20.81S349.08,204.37,398.88,204.21Z"/><path class="cls-7" d="M414.94,256.52l-115.66-2.41s31.59,58.63,46.85,69.34h185.8s7-1.34,7.5-11.24,0-53.28,0-53.28Z"/><line class="cls-7" x1="533" y1="291.25" x2="329.54" y2="291.25"/><path class="cls-7" d="M415.47,257.86s6.4,21.69,4,62.11"/><line class="cls-7" x1="533" y1="319.6" x2="348.54" y2="318.97"/><path class="cls-2" d="M177.47,243.4h7.23s2.94,4.55,7.76,5.62,16.33,21.4,16.33,21.4H177.47v-27Z"/><path class="cls-7" d="M229.94,310.6s-33.47,2.41-63.45-4.28"/><ellipse class="cls-8" cx="440.15" cy="265.47" rx="9.17" ry="5.12"/><rect class="cls-6" x="427.4" y="263.79" width="25.5" height="3.35" rx="1.67" ry="1.67" transform="translate(880.31 530.94) rotate(180)"/><line class="cls-7" x1="288.57" y1="251.43" x2="204.24" y2="251.43"/><path class="cls-2" d="M482,207.47l-7.52,4.34s42.17,17.94,67.6,35.07c0,0,16.46,1.07,20.61-3.21l-73.89-33.73Z"/><path class="cls-2" d="M306.73,203.13l11.76,5.54L245,234.57s-13.05,3.51-16-1.92C229,232.65,259.23,212.85,306.73,203.13Z"/><ellipse class="cls-8" cx="326.59" cy="265.47" rx="9.17" ry="5.12"/><rect class="cls-6" x="313.84" y="263.79" width="25.5" height="3.35" rx="1.67" ry="1.67" transform="translate(653.17 530.94) rotate(-180)"/><path class="cls-2" d="M519.68,240s-6.53-4.32-8.33-4.62-9.74.6-10.14,4.62a97.5,97.5,0,0,0,0,11.24s8.92,7,17.4,0C524.7,246.21,519.68,240,519.68,240Z"/><polygon class="cls-8" points="322.81 218.72 326.59 251.65 320.1 251.43 318.49 220.6 322.81 218.72"/><text class="cls-9" transform="translate(410.02 468.55)">Left Side</text><path class="cls-10" d="M359.57,479a16.05,16.05,0,0,0,12.82,0,17.24,17.24,0,0,0,9.26-9.54,15.51,15.51,0,0,0,0-12.51,17.2,17.2,0,0,0-9.26-9.52c-1.19-.28-2.09-0.59-3.28-0.9a17.61,17.61,0,0,0-9.54.9A16.82,16.82,0,0,0,350,457a18.28,18.28,0,0,0,0,12.51,16.86,16.86,0,0,0,9.54,9.54h0ZM350,469.5,350,457m9.54-9.52,12.82,0,9.26,9.52,0,12.51M372.4,479m-13.11-25.62a11.67,11.67,0,0,1,13.11,0c9.83,6.55,5.08,21.72-6.55,21.72s-16.38-15.17-6.55-21.72h0Zm-24.17-2.68c-1.76,0-3.56.31-4.75-1.19-2.71-2.09-.9-6.24,2.71-6.24,2,0,3.56,0,5,1.19a3.66,3.66,0,0,1,1.19,2.68c0,2.09-1.76,3.56-4.18,3.56h0Zm-15.48,36.61h66.48a4.57,4.57,0,0,0,4.46-4.46V444.78a4.32,4.32,0,0,0-4.18-4.44H381l-1.19-6.55a3.49,3.49,0,0,0-3.28-2.68H353.92a3.89,3.89,0,0,0-3.61,2.68l-1.19,6.55H338.4l-0.85-1.8c0-2.09-3.61-2.68-5.7-2.68-2.94,0-6.55-.59-8.93.59-2.09,1.19-1.19,2.09-2.09,3.89h-1.76a4.48,4.48,0,0,0-4.18,4.44v38.11a4.63,4.63,0,0,0,4.75,4.46h0Z"/><rect class="cls-11" x="112.52" y="65.57" width="639.9" height="469.05" rx="20.54" ry="20.54"/></svg>