<svg id="Layer_1" data-name="Layer 1" xmlns="http://www.w3.org/2000/svg" viewBox="0 0 841.89 595.28"><defs><style>.cls-1{font-size:33.05px;}.cls-1,.cls-2,.cls-4{fill:#929090;}.cls-1,.cls-4{font-family:Open Sans;font-weight:700;}.cls-2{fill-rule:evenodd;}.cls-3{fill:none;stroke:#fff;stroke-miterlimit:10;stroke-width:3px;}.cls-4{font-size:50.01px;}</style></defs><title>Car Icon_UI Design_</title><text class="cls-1" transform="translate(465.88 466.21)">Other</text><path class="cls-2" d="M413.06,476.7a16.05,16.05,0,0,0,12.82,0,17.24,17.24,0,0,0,9.26-9.54,15.51,15.51,0,0,0,0-12.51,17.2,17.2,0,0,0-9.26-9.52c-1.19-.28-2.09-0.59-3.28-0.9a17.61,17.61,0,0,0-9.54.9,16.82,16.82,0,0,0-9.54,9.52,18.28,18.28,0,0,0,0,12.51,16.86,16.86,0,0,0,9.54,9.54h0Zm-9.54-9.54,0-12.51,9.54-9.52,12.82,0,9.26,9.52,0,12.51-9.26,9.54-13.11-25.62a11.67,11.67,0,0,1,13.11,0c9.83,6.55,5.08,21.72-6.55,21.72s-16.38-15.17-6.55-21.72h0Zm-24.17-2.68c-1.76,0-3.56.31-4.75-1.19-2.71-2.09-.9-6.24,2.71-6.24,2,0,3.56,0,5,1.19a3.66,3.66,0,0,1,1.19,2.68c0,2.09-1.76,3.56-4.18,3.56h0ZM373.13,485h66.48a4.57,4.57,0,0,0,4.46-4.46V442.44a4.32,4.32,0,0,0-4.18-4.44h-5.37l-1.19-6.55a3.49,3.49,0,0,0-3.28-2.68H407.41a3.89,3.89,0,0,0-3.61,2.68L402.62,438H391.89L391,436.2c0-2.09-3.61-2.68-5.7-2.68-2.94,0-6.55-.59-8.93.59-2.09,1.19-1.19,2.09-2.09,3.89h-1.76a4.48,4.48,0,0,0-4.18,4.44v38.11a4.63,4.63,0,0,0,4.75,4.46h0Z"/><rect class="cls-3" x="226.02" y="61.63" width="469.05" height="469.05" rx="20.54" ry="20.54"/><text class="cls-4" transform="translate(398.58 290.12)">Attach</text><path class="cls-2" d="M371.43,235.23l-19.48,51.93s-4.85,10.62,6.24,14.78c10,3.76,14.11-7.15,14.11-7.15l20.49-54.62s5.37-14.33-8.88-19.67-19.62,9-19.62,9L343.8,284.11s-7.73,20.61,10.6,27.48,26-13.75,26-13.75l20.49-54.62c0.84-2.24-3.23-3.77-4.08-1.53l-20.49,54.62s-4.71,17.09-20.43,11.2c-14.25-5.35-8-21.88-8-21.88L368.36,231s3.85-10.25,14-6.44,6.33,14.07,6.33,14.07l-20.49,54.62s-2.41,6.42-8.35,4.19-3.88-8.77-3.88-8.77l19.48-51.93c0.84-2.25-3.21-3.77-4.05-1.52h0Zm0,0"/></svg>