<svg id="Layer_1" data-name="Layer 1" xmlns="http://www.w3.org/2000/svg" viewBox="0 0 841.89 595.28"><defs><style>.cls-1,.cls-4,.cls-8{fill:#d8d8d8;}.cls-1,.cls-2,.cls-3,.cls-4,.cls-5,.cls-6,.cls-7,.cls-8{stroke:#7b7b7b;}.cls-1,.cls-11,.cls-2,.cls-3,.cls-4,.cls-5,.cls-6,.cls-7,.cls-8{stroke-miterlimit:10;}.cls-1,.cls-2,.cls-7{stroke-width:2px;}.cls-2,.cls-5,.cls-6{fill:#f0efef;}.cls-3{fill:#ababab;}.cls-11,.cls-3,.cls-4,.cls-5{stroke-width:3px;}.cls-11,.cls-7{fill:none;}.cls-9{font-size:33.05px;font-family:Open Sans;font-weight:700;}.cls-10,.cls-9{fill:#929090;}.cls-10{fill-rule:evenodd;}.cls-11{stroke:#fff;}</style></defs><title>Car Icon_UI Design_</title><path class="cls-1" d="M161.53,260.27c3.49-1.29,57.53-20.95,130.31-26.18a2.54,2.54,0,0,0,.87-0.22l73.48-33.54s36.61-15.17,87.28-15c31,0.11,104-2.66,177.21,40.37a2.54,2.54,0,0,0,1.2.35L671,227.36h0.29c1.18-.1,10.06-0.67,10.31,4.83,0.23,5.08.06,24.31,0,29.49a2.55,2.55,0,0,0,1,2c2.2,1.76,7.32,6.64,7.32,14V305a2.54,2.54,0,0,1-1.77,2.43,245.74,245.74,0,0,1-65.7,10.89,2.54,2.54,0,0,1-2.59-2.57c0.1-10.62-2.41-50-45.34-49.86-40.94.17-41.63,44.56-41.13,56a2.54,2.54,0,0,1-2.55,2.65H307.39a2.55,2.55,0,0,1-2.55-2.7c0.73-11.76.64-57.83-45.74-55.67,0,0-41.34.78-40.24,51.53a2.55,2.55,0,0,1-2.23,2.59c-8.27,1-37.23,3.93-62.54-1a2.56,2.56,0,0,1-1.86-3.53c1.22-2.82,2.93-7,3.26-9.17a34,34,0,0,0-.8-6c-1.9-11.13-5.61-33.74,6.48-40.19Z"/><path class="cls-2" d="M317.33,240.75l-1.54,5.42,120.28-2.48L447,195s-47.63-7.46-128.11,44A4.54,4.54,0,0,0,317.33,240.75Z"/><path class="cls-1" d="M340.36,226.71s-5.62,13.59,1.81,18.92l-26.37.54,1.39-3.82a8.1,8.1,0,0,1,3.55-4.24Z"/><circle class="cls-3" cx="263.11" cy="308.99" r="36.4"/><circle class="cls-4" cx="263.11" cy="308.99" r="27.35"/><circle class="cls-3" cx="576.61" cy="308.99" r="36.4"/><circle class="cls-4" cx="576.61" cy="308.99" r="27.35"/><path class="cls-5" d="M163.06,280.58s-2-14.86,14.46-14.86H201s7.43,0,6.43,3.41c-0.51,1.72-5.22,11.47-23.29,11.24C170.69,280.2,163.06,280.58,163.06,280.58Z"/><path class="cls-3" d="M183.07,301s8.3,2,2.94,5.76a33.38,33.38,0,0,1-20.35,6,77.41,77.41,0,0,1-11.85-.8l1.68-5.35-0.8-6Z"/><circle class="cls-6" cx="175.83" cy="306.11" r="4.05"/><path class="cls-2" d="M456.15,194.6L447,243.44l109-1.87s12.85-11.09-1.61-20.81S505.94,194.76,456.15,194.6Z"/><path class="cls-7" d="M440.08,246.91l115.66-2.41s-31.59,58.63-46.85,69.34H323.09s-7-1.34-7.5-11.24,0-53.28,0-53.28Z"/><line class="cls-7" x1="322.02" y1="281.64" x2="525.49" y2="281.64"/><path class="cls-7" d="M439.55,248.25s-6.4,21.69-4,62.11"/><line class="cls-7" x1="322.02" y1="309.99" x2="506.48" y2="309.36"/><path class="cls-2" d="M677.55,233.79h-7.23s-2.94,4.55-7.76,5.62-16.33,21.4-16.33,21.4h31.32v-27Z"/><path class="cls-7" d="M625.08,301s33.47,2.41,63.45-4.28"/><ellipse class="cls-8" cx="414.87" cy="255.86" rx="9.17" ry="5.12"/><rect class="cls-6" x="402.12" y="254.18" width="25.5" height="3.35" rx="1.67" ry="1.67"/><line class="cls-7" x1="566.45" y1="241.82" x2="650.78" y2="241.82"/><path class="cls-2" d="M373,197.86l7.52,4.34s-42.17,17.94-67.6,35.07c0,0-16.46,1.07-20.61-3.21l73.89-33.73Z"/><path class="cls-2" d="M548.29,193.52l-11.76,5.54L610,225s13.05,3.51,16-1.92C626.06,223,595.79,203.24,548.29,193.52Z"/><ellipse class="cls-8" cx="528.44" cy="255.86" rx="9.17" ry="5.12"/><rect class="cls-6" x="515.69" y="254.18" width="25.5" height="3.35" rx="1.67" ry="1.67"/><path class="cls-2" d="M335.34,230.38s6.53-4.32,8.33-4.62,9.74,0.6,10.14,4.62a97.5,97.5,0,0,1,0,11.24s-8.92,7-17.4,0C330.32,236.6,335.34,230.38,335.34,230.38Z"/><polygon class="cls-8" points="532.21 209.12 528.44 242.04 534.92 241.82 536.53 210.99 532.21 209.12"/><text class="cls-9" transform="translate(386.91 462.9)">Right Side</text><path class="cls-10" d="M335,473.4a16.05,16.05,0,0,0,12.82,0,17.24,17.24,0,0,0,9.26-9.54,15.51,15.51,0,0,0,0-12.51,17.2,17.2,0,0,0-9.26-9.52c-1.19-.28-2.09-0.59-3.28-0.9a17.61,17.61,0,0,0-9.54.9,16.82,16.82,0,0,0-9.54,9.52,18.28,18.28,0,0,0,0,12.51A16.86,16.86,0,0,0,335,473.4h0Zm-9.54-9.54,0-12.51,9.54-9.52,12.82,0,9.26,9.52,0,12.51-9.26,9.54-13.11-25.62a11.67,11.67,0,0,1,13.11,0c9.83,6.55,5.08,21.72-6.55,21.72s-16.38-15.17-6.55-21.72h0Zm-24.17-2.68c-1.76,0-3.56.31-4.75-1.19-2.71-2.09-.9-6.24,2.71-6.24,2,0,3.56,0,5,1.19a3.66,3.66,0,0,1,1.19,2.68c0,2.09-1.76,3.56-4.18,3.56h0Zm-15.48,36.61h66.48a4.57,4.57,0,0,0,4.46-4.46V439.14a4.32,4.32,0,0,0-4.18-4.44h-5.37l-1.19-6.55a3.49,3.49,0,0,0-3.28-2.68H329.37a3.89,3.89,0,0,0-3.61,2.68l-1.19,6.55H313.85l-0.85-1.8c0-2.09-3.61-2.68-5.7-2.68-2.94,0-6.55-.59-8.93.59-2.09,1.19-1.19,2.09-2.09,3.89h-1.76a4.48,4.48,0,0,0-4.18,4.44v38.11a4.63,4.63,0,0,0,4.75,4.46h0Z"/><rect class="cls-11" x="100.99" y="64.26" width="639.9" height="469.05" rx="20.54" ry="20.54"/></svg>