<svg id="Layer_1" data-name="Layer 1" xmlns="http://www.w3.org/2000/svg" viewBox="0 0 841.89 595.28"><defs><style>.cls-1{fill:#d8d8d8;stroke:#7b7b7b;stroke-miterlimit:10;stroke-width:2px;}</style></defs><title>Icons_UI Design</title><path class="cls-1" d="M425.89,340l34.78-35.59s12-14.25,27.37,0,57.59,57,57.59,57L582.69,326s14.25-18.25,0-32.5l-98.07-98.07s-26.23-26.23-52.46,0-60.44,61.58-60.44,61.58-10.83,17.68,6.84,34.78S425.89,340,425.89,340Z"/><path class="cls-1" d="M388.26,223.41L414.49,196,348.35,162.4s-15.39-9.69-97.5,5.7l9.69,34.21,42.19-5.7s23.38-4,53,11.4S388.26,223.41,388.26,223.41Z"/><path class="cls-1" d="M435,347.12s19.43,22.54,39.67,21.69c0,0,25.09.86,41.62-17.11l-9.12-9.41s-16.82,15.13-29.93,13.27c0,0-17.68,3-32.79-17Z"/><path class="cls-1" d="M561.31,365.67s17.11,28.22,17.11,48.47v39.34h34.21V412.14s3.26-40.77-23.6-73.55Z"/><path class="cls-1" d="M260.69,248.22s-35.35,36-31.93,63.58c0,0,6.63,26.8,31.93,26.8,0,0,26.44,0,31.93-25.66C292.62,312.93,302.75,290.62,260.69,248.22Z"/></svg>