<svg id="Layer_1" data-name="Layer 1" xmlns="http://www.w3.org/2000/svg" viewBox="0 0 841.89 595.28"><defs><style>.cls-1{fill:#d8d8d8;stroke:#7b7b7b;stroke-miterlimit:10;stroke-width:2px;}</style></defs><title>Icons_UI Design</title><polygon class="cls-1" points="437.86 352.33 485.59 305.14 497.93 317.47 497.93 328.73 522.06 352.33 522.06 372.71 553.16 375.39 553.16 399.52 568.71 408.64 586.95 425.8 586.95 455.83 554.77 455.83 462.53 361.98 449.13 363.06 437.86 352.33"/><path class="cls-1" d="M469.86,250.5l-10-31s-11.5-27-41.5-38.5l-37.5-19s-24.33-12.67-43.5,6c-16,15.56-36.5,34.5-36.5,34.5s-20,19.5-6,43.5l21,43.82s13.5,30.68,39.5,38.18l26,7.5s39,17.5,61-3l22-20.5S484.36,296.67,469.86,250.5ZM372.2,201.36l-35.3,35.3a11.33,11.33,0,0,1-16,0l-3.07-3.07a11.33,11.33,0,0,1,0-16l35.3-35.3a11.33,11.33,0,0,1,16,0l3.07,3.07A11.33,11.33,0,0,1,372.2,201.36Z"/></svg>