<svg id="Layer_1" data-name="Layer 1" xmlns="http://www.w3.org/2000/svg" viewBox="0 0 841.89 595.28"><defs><style>.cls-1{fill:#d8d8d8;stroke:#7b7b7b;stroke-miterlimit:10;stroke-width:2px;}</style></defs><title>Icons_UI Design</title><path class="cls-1" d="M340.53,396l155.12-22.79s43.69-7,53.18,29.76c0,0,.95,12,0,15.19s-7,9.81-17.73,10.76-187.4,0-187.4,0-11.4-1.58-13-11.4S334.46,396.85,340.53,396Z"/><path class="cls-1" d="M327.24,403.87s5-12,12.43-13.84c10-2.45,30.11-4.87,30.11-4.87s4.62-86.71-24.19-138c0,0-10.76-20.26-26-19.63l-15.19.63s-15.83,4.75-10.76,30.07S327.24,403.87,327.24,403.87Z"/><path class="cls-1" d="M281.65,175.94l3.48,35.14s6,13.93,16.78,12.35,25-10.13,25.32-19.94S327.87,173.41,313,163C313,163,285.77,153.78,281.65,175.94Z"/><path class="cls-1" d="M361.11,438.69H511.47a23.78,23.78,0,0,1-21.84,15.51c-17.09.63-98.77,0-98.77,0S367.44,453.57,361.11,438.69Z"/></svg>