<svg xmlns="http://www.w3.org/2000/svg" xmlns:xlink="http://www.w3.org/1999/xlink" version="1.1" x="0px" y="0px" viewBox="0 0 100 100" style="enable-background:new 0 0 100 100;" xml:space="preserve"><style type="text/css">
	.st0{fill:#ffffff;}
	.st1{fill:#FFFFFF;stroke:#ffffff;stroke-width:2;stroke-miterlimit:10;}
	.st2{fill:#FFFFFF;stroke:#ffffff;stroke-linecap:round;stroke-linejoin:round;stroke-miterlimit:10;}
</style><g>
<path d="M27.1,61.2V40.6C30.5,30.9,39.5,24,50.2,24c10.3,0,19.1,6.5,22.8,15.6v18.8c-3.3,8.2-10.7,14.2-19.6,15.4   c-0.6-1.1-1.8-1.8-3.1-1.8c-2,0-3.7,1.7-3.7,3.7s1.6,3.7,3.7,3.7c1.5,0,2.8-0.9,3.4-2.2c9.9-1.2,18.2-7.7,22.2-16.7   c2.2-1.1,3.8-3.4,3.8-6V43.4c0-2.7-1.6-5-3.8-6c-4.4-9.9-14.2-16.9-25.5-16.9c-11.3,0-21,6.9-25.4,16.7c-2.5,1-4.3,3.4-4.3,6.2   v11.1C20.5,58.2,23.4,61.2,27.1,61.2z"></path><path d="M50.2,29C39.3,29,30.6,38,30.6,49c0,11,8.8,20,19.6,20C61,69,69.8,60,69.8,49C69.8,38,61,29,50.2,29z M50,60.6   c-5.1,0-9.3-4.2-9.3-9.3h18.6C59.3,56.4,55.1,60.6,50,60.6z"></path></g></svg>