<svg id="Layer_1" data-name="Layer 1" xmlns="http://www.w3.org/2000/svg" viewBox="0 0 841.89 595.28"><defs><style>.cls-1,.cls-6{fill:#ababab;}.cls-1,.cls-2,.cls-3,.cls-5,.cls-6,.cls-9{stroke:#7b7b7b;}.cls-1,.cls-12,.cls-2,.cls-3,.cls-4,.cls-5,.cls-6,.cls-7,.cls-8,.cls-9{stroke-miterlimit:10;}.cls-1,.cls-12,.cls-2,.cls-4,.cls-5,.cls-7{stroke-width:3px;}.cls-2{fill:#f0efef;}.cls-3{fill:#d8d8d8;}.cls-3,.cls-6,.cls-8,.cls-9{stroke-width:2px;}.cls-4{fill:#fff;}.cls-4,.cls-7,.cls-8{stroke:#6d6d6d;}.cls-5{fill:#bfbfbf;}.cls-12,.cls-7,.cls-8,.cls-9{fill:none;}.cls-10{font-size:33.05px;font-family:Open Sans;font-weight:700;}.cls-10,.cls-11{fill:#929090;}.cls-11{fill-rule:evenodd;}.cls-12{stroke:#fff;}</style></defs><title>Car Icon_UI Design_</title><path class="cls-1" d="M578.92,294.59v86.34s0.27,5.9-11.53,6.52-28.26,0-28.26,0-6.21-1.24-6.52-5.28,0-35.06,0-35.06"/><path class="cls-1" d="M244.32,292.69V379s-0.27,5.9,11.53,6.52,28.26,0,28.26,0,6.21-1.24,6.52-5.28,0-35.06,0-35.06"/><path class="cls-2" d="M564.21,200h9.94v-9s1.24-8.7,11.8-9,25.47-.93,25.47,14.6c0,0,1.24,11.8-11.18,12.11s-27.33,0-27.33,0l-1.24,5.9s-3.73,2.48-6.52-3.73S560.48,201.53,564.21,200Z"/><path class="cls-2" d="M260.76,200h-9.94v-9s-1.24-8.7-11.8-9-25.47-.93-25.47,14.6c0,0-1.24,11.8,11.18,12.11s27.33,0,27.33,0l1.24,5.9s3.73,2.48,6.52-3.73S264.49,201.53,260.76,200Z"/><path class="cls-3" d="M293.19,134.28l-45.47,81.59a27.85,27.85,0,0,0-2.38,5.65c-1.72,5.82-5,18.75-5,32.2,0,18.17,8.85,70.35,8.85,70.35s4.19,20,12.11,21.43,232.94,2.33,232.94,2.33h52.33a27.57,27.57,0,0,0,27.08-21.54q0.13-.63.25-1.29c3.2-18,10-57.93,10.76-73.72,0.11-2.31-.31-9.22-0.58-11.52-0.85-7.25-2.89-18.8-10.65-29.37-9.6-13.09-38-68.29-41.56-75.22-0.2-.38-0.37-0.77-0.55-1.16-1.14-2.57-8.39-15.49-39.42-16.33-34.48-.93-159.8,0-159.8,0s-13.39,0-24.68,4.22A27.35,27.35,0,0,0,293.19,134.28Z"/><path class="cls-2" d="M308.39,193s0.27,23.83,7.5,42.57H255.38l4.82-16.06s7-15,20.61-15c0,0,6.69,0,9.16-7.76C291.64,191.56,300.62,187.41,308.39,193Z"/><path class="cls-2" d="M515.3,193s-0.27,23.83-7.5,42.57h60.51l-4.82-16.06s-7-15-20.61-15c0,0-6.69,0-9.16-7.76C532,191.56,523.06,187.41,515.3,193Z"/><path class="cls-2" d="M303.57,133.33l-10,48.53,235.73,1.67-10.44-49.8S412.48,118.87,303.57,133.33Z"/><path class="cls-4" d="M273.37,169.83A67.88,67.88,0,0,0,290,194"/><path class="cls-4" d="M551.24,171.46a67.88,67.88,0,0,1-16.6,24.14"/><polygon class="cls-5" points="336.9 206.82 483.88 206.82 477.45 239.75 346.14 239.75 336.9 206.82"/><path class="cls-6" d="M320,246.18H503.16s0.8,21.69-11.65,22.09-159.43,0-159.43,0S322.85,265.05,320,246.18Z"/><path class="cls-7" d="M253.7,337.57h10.92s7.09-11.48,21-11.48H538.06s13.15,2.88,17.64,11.48h12.52"/><path class="cls-7" d="M245.84,303.2s16.75-8.8,35.83-8.61,261.26,0,261.26,0,15.24-.62,33.71,8.61"/><path class="cls-8" d="M262.85,331.83s6.17-11,18.83-11.36,256.38,0,256.38,0,13.18,0,19.24,11.36"/><path class="cls-9" d="M257.55,240.35s-4.77,24.93,15.82,24.93h54.07"/><path class="cls-9" d="M567.17,240.35s4.77,24.93-15.82,24.93H497.28"/><text class="cls-10" transform="translate(420.61 466.54)">Back</text><path class="cls-11" d="M369.06,477a16.05,16.05,0,0,0,12.82,0,17.24,17.24,0,0,0,9.26-9.54,15.51,15.51,0,0,0,0-12.51,17.2,17.2,0,0,0-9.26-9.52c-1.19-.28-2.09-0.59-3.28-0.9a17.61,17.61,0,0,0-9.54.9,16.82,16.82,0,0,0-9.54,9.52,18.28,18.28,0,0,0,0,12.51,16.86,16.86,0,0,0,9.54,9.54h0Zm-9.54-9.54,0-12.51,9.54-9.52,12.82,0,9.26,9.52,0,12.51M381.88,477m-13.11-25.62a11.67,11.67,0,0,1,13.11,0c9.83,6.55,5.08,21.72-6.55,21.72s-16.38-15.17-6.55-21.72h0Zm-24.17-2.68c-1.76,0-3.56.31-4.75-1.19-2.71-2.09-.9-6.24,2.71-6.24,2,0,3.56,0,5,1.19a3.66,3.66,0,0,1,1.19,2.68c0,2.09-1.76,3.56-4.18,3.56h0Zm-15.48,36.61H395.6a4.57,4.57,0,0,0,4.46-4.46V442.77a4.32,4.32,0,0,0-4.18-4.44h-5.37l-1.19-6.55a3.49,3.49,0,0,0-3.28-2.68H363.4a3.89,3.89,0,0,0-3.61,2.68l-1.19,6.55H347.88l-0.85-1.8c0-2.09-3.61-2.68-5.7-2.68-2.94,0-6.55-.59-8.93.59-2.09,1.19-1.19,2.09-2.09,3.89h-1.76a4.48,4.48,0,0,0-4.18,4.44v38.11a4.63,4.63,0,0,0,4.75,4.46h0Z"/><rect class="cls-12" x="176.42" y="62.94" width="469.05" height="469.05" rx="20.54" ry="20.54"/></svg>