<svg id="Layer_1" data-name="Layer 1" xmlns="http://www.w3.org/2000/svg" viewBox="0 0 841.89 595.28"><defs><style>.cls-1{fill:#d8d8d8;stroke:#7b7b7b;stroke-miterlimit:10;stroke-width:2px;}</style></defs><title>Icons_UI Design</title><path class="cls-1" d="M364.64,242.22H483.37V349.4s0,26.31-35.3,27-57.12,0-57.12,0-23.74-1.93-26.31-23.74V242.22Z"/><rect class="cls-1" x="377.16" y="159.71" width="93.69" height="82.14"/><rect class="cls-1" x="402.34" y="376.26" width="43.32" height="43.32"/><path class="cls-1" d="M424.79,257.25l-9.92,20.67H422l0.17,49.44-13.89-12.24V305s3.64-.37,3.91-4.94a6.22,6.22,0,0,0-1.16-3.86,6.14,6.14,0,0,0-5.07-2.15,6,6,0,0,0-5.29,5.4s-0.61,3.36,3.31,5.84l-0.06,11.46,18.3,16.87,0.11,13.17a7.81,7.81,0,0,0-5.13,7.28s-0.66,6,7,7.55a7.48,7.48,0,0,0,8-5.57,8.15,8.15,0,0,0-5.24-9.37l-0.11-26,17.25-16V294.4h3.31V283H436l-0.06,11.13,3.8-.06,0.11,8.49-13,12.13v-37l8.27-.06Z"/><rect class="cls-1" x="406.09" y="200.78" width="7.55" height="27.5"/><rect class="cls-1" x="434.37" y="200.78" width="7.55" height="27.5"/><rect class="cls-1" x="416.95" y="419.59" width="14.11" height="34.89"/></svg>