<svg id="Layer_1" data-name="Layer 1" xmlns="http://www.w3.org/2000/svg" viewBox="0 0 841.89 595.28"><defs><style>.cls-1{fill:#d8d8d8;stroke:#7b7b7b;stroke-miterlimit:10;stroke-width:2px;}</style></defs><title>Icons_UI Design-14</title><path class="cls-1" d="M610.69,289.84C446.9,139.14,257.3,158.66,257.3,158.66s16.27,263.72,20.35,282.74c3,13.9,20.85,13.4,20.85,13.4l307.23,0.5C647.42,375.06,610.69,289.84,610.69,289.84Zm-324.6-12.72-7.94-107.7c168.75-4,293.33,107.7,293.33,107.7H286.09Z"/><line class="cls-1" x1="295.03" y1="424.53" x2="589.85" y2="424.53"/><path class="cls-1" d="M550.64,248.87s42.19-.5,46.16,30.77c0,0-3,25-46.16,26.63v-57.4Z"/><rect class="cls-1" x="539.72" y="244.81" width="10.92" height="65.52"/><line class="cls-1" x1="287.42" y1="294.32" x2="534.26" y2="294.32"/><ellipse class="cls-1" cx="317.99" cy="317.49" rx="19.56" ry="10.92"/><rect class="cls-1" x="290.8" y="313.92" width="54.38" height="7.14" rx="1.35" ry="1.35"/><line class="cls-1" x1="295.03" y1="432.47" x2="589.85" y2="432.47"/></svg>