<svg id="Layer_1" data-name="Layer 1" xmlns="http://www.w3.org/2000/svg" viewBox="0 0 841.89 595.28"><defs><style>.cls-1{fill:#d8d8d8;stroke:#7b7b7b;stroke-miterlimit:10;stroke-width:2px;}</style></defs><title>Icons_UI Design</title><path class="cls-1" d="M401.88,372.22A70.67,70.67,0,0,1,356,310.68L250.09,389.59a17,17,0,0,0-3.48,23.79l26.22,35.2A15.85,15.85,0,0,0,295,451.83Z"/><path class="cls-1" d="M483.34,263.71a70.38,70.38,0,0,1,13.84,37.54l105.49-78.58a17.57,17.57,0,0,0,3.6-24.59l-25.67-34.47a16.2,16.2,0,0,0-22.66-3.31L451.33,239.7A70.38,70.38,0,0,1,483.34,263.71Z"/><path class="cls-1" d="M366.72,228.27c23.34-17.39,53.25-17.22,69.06-.35a36.94,36.94,0,0,0-2.29-3.48c-14.89-20-47-21.26-71.74-2.84S329,271.17,343.93,291.15a36.94,36.94,0,0,0,2.68,3.19C335,274.36,343.38,245.66,366.72,228.27Z"/><path class="cls-1" d="M354.6,212c34-25.3,77.48-25.06,100.48-.51a53.74,53.74,0,0,0-3.32-5.06c-21.66-29.08-68.39-30.93-104.38-4.13s-47.6,72.11-25.94,101.19a53.74,53.74,0,0,0,3.9,4.63C308.41,279.07,320.64,237.31,354.6,212Z"/><path class="cls-1" d="M339.31,191.47c40-29.79,91.25-29.51,118.34-.6a63.3,63.3,0,0,0-3.92-6c-25.51-34.25-80.55-36.43-122.93-4.86S274.75,265,300.26,299.23a63.3,63.3,0,0,0,4.59,5.46C284.9,270.45,299.31,221.27,339.31,191.47Z"/><path class="cls-1" d="M475.58,269.49a61.06,61.06,0,1,0-52.32,97.44l12.9,17.28,62.75-46.82L486,320.1A60.92,60.92,0,0,0,475.58,269.49Z"/></svg>