<svg id="Layer_1" data-name="Layer 1" xmlns="http://www.w3.org/2000/svg" viewBox="0 0 841.89 595.28"><defs><style>.cls-1{fill:#d8d8d8;stroke:#7b7b7b;stroke-miterlimit:10;stroke-width:2px;}.cls-2{font-size:53.75px;fill:#929090;font-family:Open Sans;font-weight:700;}</style></defs><title>Icons_UI Design</title><rect class="cls-1" x="424.05" y="307.84" width="25.13" height="78.3"/><path class="cls-1" d="M414.09,386.15H459.9A11.85,11.85,0,0,1,471.76,398v10.92a0,0,0,0,1,0,0H401.48a0,0,0,0,1,0,0V398.76A12.61,12.61,0,0,1,414.09,386.15Z"/><path class="cls-1" d="M400.64,408.92h74.2a15.33,15.33,0,0,1,15.33,15.33v7.45a0,0,0,0,1,0,0H383.07a0,0,0,0,1,0,0v-5.22A17.56,17.56,0,0,1,400.64,408.92Z"/><path class="cls-1" d="M382.92,431.7H492.24a12.49,12.49,0,0,1,12.49,12.49v10.29a0,0,0,0,1,0,0H368.51a0,0,0,0,1,0,0v-8.36A14.41,14.41,0,0,1,382.92,431.7Z"/><path class="cls-1" d="M499,222.55a63.16,63.16,0,1,0-94.12,55c3.74,30.47,19.52,30.25,19.52,30.25s6.1,0.52,25.13,0c17.65-.48,21.49-29,21.95-33.15A63.08,63.08,0,0,0,499,222.55Z"/><text class="cls-2" transform="translate(411.18 240.14)">M</text></svg>